<svg xmlns="http://www.w3.org/2000/svg" xmlns:xlink="http://www.w3.org/1999/xlink" width="1920" zoomAndPan="magnify" viewBox="0 0 1440 809.999993" height="1080" preserveAspectRatio="xMidYMid meet" version="1.0"><defs><clipPath id="784e18f3f7"><path d="M 37.199219 215.238281 L 1399.792969 215.238281 L 1399.792969 707.925781 L 37.199219 707.925781 Z M 37.199219 215.238281 " clip-rule="nonzero"/></clipPath><clipPath id="528f26eaa4"><path d="M 67.199219 215.238281 L 1369.105469 215.238281 C 1377.0625 215.238281 1384.695312 218.398438 1390.320312 224.023438 C 1395.945312 229.648438 1399.105469 237.28125 1399.105469 245.238281 L 1399.105469 677.925781 C 1399.105469 685.882812 1395.945312 693.511719 1390.320312 699.140625 C 1384.695312 704.765625 1377.0625 707.925781 1369.105469 707.925781 L 67.199219 707.925781 C 59.242188 707.925781 51.609375 704.765625 45.984375 699.140625 C 40.359375 693.511719 37.199219 685.882812 37.199219 677.925781 L 37.199219 245.238281 C 37.199219 237.28125 40.359375 229.648438 45.984375 224.023438 C 51.609375 218.398438 59.242188 215.238281 67.199219 215.238281 Z M 67.199219 215.238281 " clip-rule="nonzero"/></clipPath><clipPath id="b82be2d035"><path d="M 0.199219 0.238281 L 1362.199219 0.238281 L 1362.199219 492.925781 L 0.199219 492.925781 Z M 0.199219 0.238281 " clip-rule="nonzero"/></clipPath><clipPath id="8fdded5393"><path d="M 30.199219 0.238281 L 1332.105469 0.238281 C 1340.0625 0.238281 1347.695312 3.398438 1353.320312 9.023438 C 1358.945312 14.648438 1362.105469 22.28125 1362.105469 30.238281 L 1362.105469 462.925781 C 1362.105469 470.882812 1358.945312 478.511719 1353.320312 484.140625 C 1347.695312 489.765625 1340.0625 492.925781 1332.105469 492.925781 L 30.199219 492.925781 C 22.242188 492.925781 14.609375 489.765625 8.984375 484.140625 C 3.359375 478.511719 0.199219 470.882812 0.199219 462.925781 L 0.199219 30.238281 C 0.199219 22.28125 3.359375 14.648438 8.984375 9.023438 C 14.609375 3.398438 22.242188 0.238281 30.199219 0.238281 Z M 30.199219 0.238281 " clip-rule="nonzero"/></clipPath><clipPath id="a2eab9a79a"><rect x="0" width="1363" y="0" height="493"/></clipPath><clipPath id="cef48cdf9e"><path d="M 37.210938 215.238281 L 1399.199219 215.238281 L 1399.199219 707.988281 L 37.210938 707.988281 Z M 37.210938 215.238281 " clip-rule="nonzero"/></clipPath><clipPath id="d957150e11"><path d="M 67.210938 215.238281 L 1369.09375 215.238281 C 1377.046875 215.238281 1384.679688 218.398438 1390.304688 224.023438 C 1395.929688 229.648438 1399.089844 237.28125 1399.089844 245.234375 L 1399.089844 677.917969 C 1399.089844 685.875 1395.929688 693.503906 1390.304688 699.128906 C 1384.679688 704.753906 1377.046875 707.917969 1369.09375 707.917969 L 67.210938 707.917969 C 59.253906 707.917969 51.621094 704.753906 45.996094 699.128906 C 40.371094 693.503906 37.210938 685.875 37.210938 677.917969 L 37.210938 245.234375 C 37.210938 237.28125 40.371094 229.648438 45.996094 224.023438 C 51.621094 218.398438 59.253906 215.238281 67.210938 215.238281 Z M 67.210938 215.238281 " clip-rule="nonzero"/></clipPath><clipPath id="1e46a83e3d"><path d="M 1065 215 L 1398.6875 215 L 1398.6875 707.929688 L 1065 707.929688 Z M 1065 215 " clip-rule="nonzero"/></clipPath><clipPath id="b33aff29e2"><path d="M 1095.011719 215.238281 L 1368.6875 215.238281 C 1376.644531 215.238281 1384.277344 218.398438 1389.902344 224.023438 C 1395.527344 229.648438 1398.6875 237.28125 1398.6875 245.238281 L 1398.6875 677.925781 C 1398.6875 685.882812 1395.527344 693.511719 1389.902344 699.140625 C 1384.277344 704.765625 1376.644531 707.925781 1368.6875 707.925781 L 1095.011719 707.925781 C 1087.058594 707.925781 1079.425781 704.765625 1073.800781 699.140625 C 1068.175781 693.511719 1065.011719 685.882812 1065.011719 677.925781 L 1065.011719 245.238281 C 1065.011719 237.28125 1068.175781 229.648438 1073.800781 224.023438 C 1079.425781 218.398438 1087.058594 215.238281 1095.011719 215.238281 Z M 1095.011719 215.238281 " clip-rule="nonzero"/></clipPath><clipPath id="eb576b87df"><path d="M 0 0.0390625 L 333.6875 0.0390625 L 333.6875 492.929688 L 0 492.929688 Z M 0 0.0390625 " clip-rule="nonzero"/></clipPath><clipPath id="31c9c12c0b"><path d="M 30.011719 0.238281 L 303.6875 0.238281 C 311.644531 0.238281 319.277344 3.398438 324.902344 9.023438 C 330.527344 14.648438 333.6875 22.28125 333.6875 30.238281 L 333.6875 462.925781 C 333.6875 470.882812 330.527344 478.511719 324.902344 484.140625 C 319.277344 489.765625 311.644531 492.925781 303.6875 492.925781 L 30.011719 492.925781 C 22.058594 492.925781 14.425781 489.765625 8.800781 484.140625 C 3.175781 478.511719 0.0117188 470.882812 0.0117188 462.925781 L 0.0117188 30.238281 C 0.0117188 22.28125 3.175781 14.648438 8.800781 9.023438 C 14.425781 3.398438 22.058594 0.238281 30.011719 0.238281 Z M 30.011719 0.238281 " clip-rule="nonzero"/></clipPath><clipPath id="f9e9385a9a"><rect x="0" width="334" y="0" height="493"/></clipPath><clipPath id="f6e228e282"><path d="M 795.300781 215.207031 L 1140.007812 215.207031 L 1140.007812 707.921875 L 795.300781 707.921875 Z M 795.300781 215.207031 " clip-rule="nonzero"/></clipPath><clipPath id="1fda63588a"><path d="M 881.121094 215.207031 L 1225.828125 215.207031 L 1225.828125 707.921875 L 881.121094 707.921875 Z M 881.121094 215.207031 " clip-rule="nonzero"/></clipPath></defs><g clip-path="url(#784e18f3f7)"><g clip-path="url(#528f26eaa4)"><g transform="matrix(1, 0, 0, 1, 37, 215)"><g clip-path="url(#a2eab9a79a)"><g clip-path="url(#b82be2d035)"><g clip-path="url(#8fdded5393)"><path fill="#f5f5f5" d="M 0.199219 0.238281 L 1362.792969 0.238281 L 1362.792969 492.925781 L 0.199219 492.925781 Z M 0.199219 0.238281 " fill-opacity="1" fill-rule="nonzero"/></g></g></g></g></g></g><g clip-path="url(#cef48cdf9e)"><g clip-path="url(#d957150e11)"><path stroke-linecap="butt" transform="matrix(0.75, 0, 0, 0.75, 37.209738, 215.236488)" fill="none" stroke-linejoin="miter" d="M 40.001601 0.00239157 L 1775.845438 0.00239157 C 1786.449606 0.00239157 1796.626689 4.215933 1804.12669 11.715934 C 1811.62669 19.215934 1815.840232 29.393018 1815.840232 39.997185 L 1815.840232 616.908673 C 1815.840232 627.518048 1811.62669 637.689924 1804.12669 645.189924 C 1796.626689 652.689924 1786.449606 656.908675 1775.845438 656.908675 L 40.001601 656.908675 C 29.392225 656.908675 19.215142 652.689924 11.715141 645.189924 C 4.215141 637.689924 0.00159897 627.518048 0.00159897 616.908673 L 0.00159897 39.997185 C 0.00159897 29.393018 4.215141 19.215934 11.715141 11.715934 C 19.215142 4.215933 29.392225 0.00239157 40.001601 0.00239157 Z M 40.001601 0.00239157 " stroke="#181e3a" stroke-width="4" stroke-opacity="1" stroke-miterlimit="4"/></g></g><g clip-path="url(#1e46a83e3d)"><g clip-path="url(#b33aff29e2)"><g transform="matrix(1, 0, 0, 1, 1065, 215)"><g clip-path="url(#f9e9385a9a)"><g clip-path="url(#eb576b87df)"><g clip-path="url(#31c9c12c0b)"><path fill="#181e3a" d="M 0.0117188 0.238281 L 333.6875 0.238281 L 333.6875 492.929688 L 0.0117188 492.929688 Z M 0.0117188 0.238281 " fill-opacity="1" fill-rule="nonzero"/></g></g></g></g></g></g><g clip-path="url(#f6e228e282)"><path fill="#181e3a" d="M 970.671875 215.207031 L 1464.800781 215.207031 C 1466.941406 215.183594 1469.105469 215.804688 1470.992188 217.121094 C 1475.800781 220.480469 1476.976562 227.113281 1473.617188 231.921875 L 1473.578125 231.890625 L 1313.074219 461.558594 L 1473.03125 690.441406 C 1474.589844 692.292969 1475.53125 694.679688 1475.53125 697.289062 C 1475.53125 703.164062 1470.769531 707.921875 1464.902344 707.921875 L 970.722656 707.921875 C 967.355469 707.933594 964.035156 706.351562 961.957031 703.378906 L 970.671875 697.289062 L 961.992188 703.351562 L 797.816406 468.4375 C 794.769531 464.847656 794.394531 459.519531 797.21875 455.476562 L 797.253906 455.496094 L 961.429688 220.574219 C 963.261719 217.367188 966.714844 215.207031 970.671875 215.207031 " fill-opacity="1" fill-rule="nonzero"/></g><g clip-path="url(#1fda63588a)"><path fill="#181e3a" d="M 1056.492188 215.207031 L 1550.621094 215.207031 C 1552.761719 215.183594 1554.925781 215.804688 1556.8125 217.121094 C 1561.621094 220.480469 1562.796875 227.113281 1559.4375 231.921875 L 1559.402344 231.890625 L 1398.894531 461.558594 L 1558.851562 690.441406 C 1560.410156 692.292969 1561.355469 694.679688 1561.355469 697.289062 C 1561.355469 703.164062 1556.589844 707.921875 1550.722656 707.921875 L 1056.542969 707.921875 C 1053.175781 707.933594 1049.855469 706.351562 1047.777344 703.378906 L 1056.492188 697.289062 L 1047.8125 703.351562 L 883.636719 468.4375 C 880.589844 464.847656 880.214844 459.519531 883.039062 455.476562 L 883.074219 455.496094 L 1047.253906 220.574219 C 1049.082031 217.367188 1052.535156 215.207031 1056.492188 215.207031 " fill-opacity="1" fill-rule="nonzero"/></g></svg>
