<svg version="1.2" xmlns="http://www.w3.org/2000/svg" viewBox="3.1299593366384104 4.433116355330806 1264.8700406633616 475.3029442543564" width="1265" height="476">
	<style>
		.s0 { fill: #232334 } 
		.s1 { fill: #fb7d0f } 
	</style>
	<g id="Layer 1">
		<g id="Background">
			<path id="Path 0" fill-rule="evenodd" class="s0" d="m596 160.6c11.27 0.53 18.19 2.16 27.81 6.55 8.64 3.95 16.15 9.43 23.08 16.85 6.24 6.68 12.17 15.71 15.11 23 4.15 10.31 4.85 15.38 4.92 36 0.07 22.28-0.33 24.86-5.58 36-3.12 6.6-7.62 14.64-10 17.86-2.39 3.22-7.94 8.8-12.34 12.39-4.4 3.59-13.85 8.61-21 11.16-11.19 3.98-15.37 4.46-30 3.42-12.25-0.86-20.07-2.64-28-6.37-6.73-3.17-15.24-9.71-21.91-16.82-6-6.4-10.72-11.87-10.5-12.14 0.23-0.27-0.86-3.43-2.42-7-1.56-3.57-3.94-11-5.29-16.5-1.44-5.86-2.1-17.45-1.59-28 0.7-14.72 1.96-20.37 6.93-31 3.34-7.15 8.81-16.15 12.16-20 3.35-3.85 9.98-9.7 14.74-13 4.76-3.3 13.2-7.6 18.77-9.55 7.24-2.55 14.36-3.36 25.11-2.85zm-31.5 17.14c-4.12 2.05-11.83 8.58-17.13 14.5-5.41 6.06-11.42 15.57-13.75 21.76-3.05 8.13-4.12 15.7-4.12 29 0 14 1.02 20.67 4.61 30 3.2 8.32 8.02 15.47 15.75 23.32 8.72 8.86 13.53 12.01 22.14 14.52 6.05 1.76 15.5 3.21 21 3.22 5.5 0.01 14.95-1.54 21-3.45 7.96-2.51 13.78-6.25 21.08-13.54 5.54-5.54 12.15-14.57 14.68-20.07 2.54-5.5 5.22-15.4 5.96-22 0.74-6.6 0.77-17.4 0.06-24-0.72-6.6-3.28-16.5-5.7-22-2.43-5.5-6.71-12.7-9.53-16-2.82-3.3-8.37-8.38-12.34-11.29-3.97-2.9-12.16-6.74-18.21-8.52-6.05-1.77-13.7-3.13-17-3.01-3.3 0.12-9.37 1.03-13.5 2.02-4.12 0.99-10.87 3.48-15 5.54zm677 4.29c1.81-0.02 2.5 4.79 2.51 34.97h11.99c11.1 0 11.99 0.33 12 4.5 0 4.17-0.89 4.5-24 4.5v96h-10v-96h-13c-12.66 0-12.95-0.12-11.27-4.5 1.5-3.9 3.17-4.5 23.27-4.5l0.31-15.94c0.22-10.97 1.15-16.41 3-17.47 1.48-0.84 3.82-1.54 5.19-1.56zm-414.5 32.07c2.2-0.04 7.15 0.76 11 1.79 4.01 1.06 10.21 5.33 14.5 9.98 4.13 4.47 8.39 11.51 9.49 15.63 1.09 4.13 1.98 10.65 1.97 14.5-0.01 3.85-0.45 9.02-0.99 11.5-0.96 4.46-1.3 4.5-69.97 4.44l1.58 9.53c0.87 5.24 3.12 12.61 5 16.38 1.88 3.76 6.12 8.94 9.42 11.5 3.86 2.99 9.92 5.07 17 5.83 9.39 1 12.39 0.41 20.5-4.01 8.72-4.74 9.61-4.88 10.81-1.67 0.89 2.38-0.38 4.94-4 8-3.05 2.58-9.36 5.03-14.81 5.75-5.23 0.69-13.55 0.75-18.5 0.13-5.2-0.66-12.32-3.5-16.88-6.76-4.44-3.17-10.11-9.95-13-15.57-4.44-8.62-5.12-12.47-5.12-29 0-16.63 0.68-20.45 5.39-30.05 2.96-6.05 7.91-13.48 11-16.5 3.09-3.03 9.21-6.81 13.61-8.41 4.4-1.6 9.8-2.95 12-2.99zm-17.78 17.53c-2.08 1.85-5.9 7.87-8.48 13.37-2.59 5.5-4.71 11.57-4.72 13.5-0.02 3.17 2.64 3.5 27.98 3.5h28c0.01-13.18-1.69-20.15-3.78-24-2.08-3.85-6.81-8.58-10.5-10.51-3.7-1.93-8.52-3.44-10.72-3.37-2.2 0.07-6.25 1.03-9 2.14-2.75 1.1-6.7 3.51-8.78 5.37zm186.78-17.45c1.65-0.09 6.6 0.84 11 2.06 4.4 1.22 10.48 3.91 13.5 5.99 4.78 3.28 5.17 4.27 3 7.59-2.43 3.71-2.69 3.68-9.5-1.01-4.72-3.26-9.77-4.83-15.5-4.82-4.67 0.01-10.98 1.27-14 2.82-3.02 1.55-7.47 4.92-9.88 7.5-2.4 2.58-6.21 8.74-8.45 13.69-2.95 6.49-4.08 13.18-4.08 24 0 10.36 1.14 17.47 3.69 23 2.03 4.4 5.84 9.97 8.46 12.37 2.62 2.4 7.24 5.32 10.26 6.5 3.02 1.17 7.98 2.15 11 2.17 3.02 0.02 10-2.21 15.5-4.94 7.44-3.7 10.38-4.35 11.47-2.54 0.8 1.34 1.21 3.34 0.9 4.44-0.31 1.1-4.57 4.03-9.47 6.52-5.91 2.99-12.43 4.51-19.4 4.5-5.77-0.01-12.98-0.98-16-2.15-3.02-1.17-8.09-4.54-11.25-7.5-3.17-2.95-7.88-9.87-10.48-15.37-3.64-7.68-4.75-13.47-4.79-25-0.04-8.58 1.27-18.85 3.06-24 1.72-4.95 5.56-12.47 8.54-16.7 2.98-4.24 8.57-9.58 12.42-11.88 3.85-2.3 9.25-4.83 12-5.63 2.75-0.79 6.35-1.52 8-1.61zm79 0.06c2.2-0.12 7.6 0.76 12 1.96 4.4 1.2 10.14 4.12 12.76 6.49 2.61 2.37 5.99 7.24 7.5 10.81 1.95 4.63 2.74 16.13 2.75 40 0 29.97 0.43 34.19 4 40 3.64 5.93 3.71 6.72 0.76 9-2.71 2.1-3.99 1.62-8-3-2.62-3.02-4.74-7.07-4.7-9 0.05-2.79-0.97-2.38-5 2-2.79 3.02-8.22 6.85-12.07 8.5-3.85 1.65-11.05 3-16 3-4.95 0-12.32-1.57-16.38-3.5-4.06-1.93-9.01-6.2-10.99-9.5-2.17-3.59-3.64-10.01-3.68-16-0.04-7.14 1.24-11.97 4.49-16.89 2.51-3.78 7.71-8.73 11.56-11 5.78-3.4 10.42-4.11 46.39-4.11l-0.69-13.71c-0.66-12.87-1.13-14.07-7.7-19.53-5.66-4.7-8.91-5.81-17-5.82-6.36-0.01-13.38 1.64-19.27 4.52-8.72 4.27-9.4 4.33-11.5 1.04-1.68-2.63-1.61-3.95 0.27-5.32 1.38-1 6.38-3.04 11.13-4.52 4.74-1.48 10.14-3.26 12-3.94 1.85-0.69 5.17-1.36 7.37-1.48zm-24.27 70.26c-1.5 3.02-2.73 8.2-2.73 11.5q0 6 6 12c4.99 4.99 7.61 6 15.5 5.99 5.98 0 11.91-1.48 16-4 3.58-2.19 8.3-6.92 10.49-10.49 2.52-4.09 4-10.02 4-16 0.01-6.67-0.88-9.8-2.99-10.5-1.65-0.55-9.08-0.98-16.5-0.95-8.77 0.03-15.87 1.25-20.27 3.5-3.72 1.9-7.99 5.93-9.5 8.95zm119.27-69.36c4.95 0.54 12.83 3.21 17.5 5.92 7.4 4.3 8.18 5.39 6.07 8.44-1.34 1.93-2.69 3.72-3 4-0.32 0.28-3.36-1.53-6.77-4-3.95-2.86-9.95-4.78-16.5-5.26-9.47-0.7-10.74-0.25-15.8 5.5-3.03 3.44-5.51 8.29-5.52 10.76 0 2.47 1.35 6.53 3 9 1.66 2.47 7.3 6.89 12.52 9.8 5.22 2.92 13.88 8.09 19.23 11.5 5.36 3.41 11.41 8.9 13.44 12.2 2.04 3.3 3.73 9.6 3.76 14 0.03 4.4-1.57 10.7-3.56 14-1.98 3.3-6.93 7.57-10.99 9.5-4.42 2.1-11.99 3.48-18.88 3.46-7.18-0.03-14.69-1.53-20-4-4.67-2.18-8.49-5.08-8.47-6.46 0.02-1.37 0.69-3.6 1.5-4.94 1.09-1.81 4.05-1.12 11.47 2.65 7.45 3.8 12.37 4.93 19.3 4.44 6.59-0.46 10.83-2.11 14.55-5.65 3.7-3.52 5.26-7.08 5.29-12 0.01-3.85-1.58-9.07-3.56-11.6-1.97-2.54-12.13-9.74-22.58-16-15.56-9.33-19.68-12.85-22.75-19.4-2.54-5.4-3.35-10.11-2.5-14.5 0.69-3.57 3.39-9.19 6.01-12.49 2.62-3.29 7.79-6.85 11.5-7.92 3.71-1.06 10.79-1.49 15.74-0.95zm-479.22 1.39c0.97 0.26 9.22 20.27 18.33 44.47 14.59 38.8 16.79 43.41 18.53 39 1.09-2.75 8.85-22.55 17.25-44 8.4-21.45 15.7-39.45 16.21-40 0.51-0.55 2.66-0.1 4.78 1 3.62 1.88 2.59 5.1-17.52 54.53-11.75 28.88-22.14 52.28-23.09 52-0.94-0.29-10.84-23.77-22-52.18-17.06-43.47-19.8-51.93-17.27-53.46 1.65-1.01 3.8-1.61 4.78-1.36zm202.77 0.35c2.76 0.39 3.68 3.27 4.6 14.3 0.63 7.6 1.3 12.7 1.5 11.32 0.19-1.37 2.37-5.59 4.85-9.36 2.48-3.77 7.65-9.18 11.5-12.03 4.98-3.68 9.46-5.17 15.5-5.14 7.72 0.03 8.5 0.49 8.5 5.03 0 4.18-0.74 4.82-4.5 3.88-2.48-0.61-6.75-0.28-9.5 0.73-2.75 1.01-8.07 4.88-11.83 8.61-3.76 3.73-8.93 11.28-11.48 16.78-4.22 9.08-4.65 12.81-4.69 71h-10l-0.33-51.67c-0.19-28.41 0.29-52.17 1.05-52.8 0.76-0.62 2.93-0.92 4.83-0.65z"/>
			<path id="Path 0" fill-rule="evenodd" class="s1" d="m218.5 4.62c-2.75 0.22-10.4 1.34-17 2.48-6.6 1.15-16.16 3.17-21.25 4.49-5.09 1.33-14.31 4.27-20.5 6.54-6.19 2.28-15.3 5.92-20.25 8.09-4.95 2.18-13.28 6.47-18.5 9.54-5.22 3.07-13.55 8.49-18.5 12.04-4.95 3.55-12.6 9.5-17 13.23-4.4 3.73-11.41 10.31-15.58 14.63-4.17 4.31-11.33 12.56-15.92 18.34-4.59 5.78-11.01 14.55-14.28 19.5-3.26 4.95-8.42 13.95-11.46 20-3.04 6.05-7.46 15.95-9.84 22-2.37 6.05-5.9 16.63-7.84 23.5-1.94 6.88-4.25 16.55-5.13 21.5-0.99 5.59-1.81 17.9-2.16 32.5-0.35 14.34-0.12 28.57 0.58 36.5 0.63 7.15 2.46 18.4 4.06 25 1.61 6.6 4.28 16.05 5.94 21 1.66 4.95 4.64 12.82 6.63 17.5 1.99 4.68 6.33 13.68 9.65 20 3.32 6.32 8.38 15.1 11.25 19.5 2.87 4.4 9.3 12.73 14.28 18.5 4.99 5.77 13.96 15.24 19.94 21.04 5.99 5.8 13.8 13.03 17.38 16.06 3.58 3.04 8.75 7.13 11.5 9.09 2.75 1.97 10.85 6.86 18 10.89 7.15 4.02 17.05 9.07 22 11.22 4.95 2.14 13.28 5.4 18.5 7.25 5.22 1.84 13.1 4.24 17.5 5.32 4.4 1.09 11.82 2.66 16.5 3.48 4.68 0.83 12.32 1.97 17 2.54 4.68 0.57 12.32 1.33 17 1.68 4.68 0.35 14.57 0.13 22-0.5 7.43-0.62 19.35-2.05 26.5-3.16 7.15-1.11 19.75-4.06 28-6.54 8.25-2.48 19.73-6.54 25.5-9.02 5.77-2.47 16.96-8.18 24.85-12.67 7.89-4.5 19.14-11.96 25-16.57 5.86-4.61 17.19-14.96 25.17-23 7.99-8.04 17.06-17.76 20.16-21.61 3.1-3.85 8.9-12.4 12.89-19 3.99-6.6 10.07-17.85 13.5-25 3.44-7.15 7.67-17.05 9.4-22 1.73-4.95 4.66-14.85 6.5-22 1.85-7.15 3.92-17.5 4.61-23 0.72-5.64 1.24-20.03 1.2-33-0.03-12.65-0.57-27.72-1.19-33.5-0.61-5.78-2.91-17.36-5.11-25.75-2.19-8.39-5.79-19.86-8.01-25.5-2.22-5.64-6.87-15.88-10.34-22.75-3.48-6.87-8.83-16.55-11.9-21.5-3.07-4.95-9.38-13.72-14.03-19.5-4.65-5.78-12.45-14.51-17.33-19.4-4.88-4.9-12.47-11.91-16.87-15.6-4.4-3.68-12.27-9.59-17.5-13.14-5.23-3.55-11.75-7.77-14.5-9.39-2.75-1.61-9.5-5.12-15-7.79-5.5-2.67-14.27-6.55-19.5-8.63-5.23-2.08-13.1-4.94-17.5-6.37-4.4-1.43-15.88-3.99-25.5-5.69-14.96-2.65-20.48-3.15-38-3.44-11.28-0.18-22.75-0.15-25.5 0.07zm-4 24.94c1.65-0.23 14.03-0.23 27.5 0 13.47 0.23 27.65 0.88 31.5 1.44 3.85 0.57 10.82 1.98 15.5 3.15 4.68 1.17 13.9 3.91 20.5 6.1 6.6 2.18 16.95 6.44 23 9.45 6.05 3.02 14.15 7.34 18 9.6 3.85 2.26 11.05 7.09 16 10.73 4.95 3.64 12.79 10.19 17.42 14.55 4.64 4.35 12.44 12.42 17.35 17.92 4.91 5.5 12.06 14.72 15.9 20.5 3.83 5.78 10.06 16.8 13.84 24.5 3.77 7.7 8.27 18.05 9.99 23 1.73 4.95 4.64 15.07 6.47 22.5 1.84 7.43 3.88 18.22 4.53 24 0.65 5.78 1.21 17.03 1.22 25 0.02 7.97-0.51 19-1.17 24.5-0.67 5.5-2.1 13.82-3.18 18.5-1.08 4.68-3.34 13.23-5.03 19-1.69 5.77-5.26 15.68-7.93 22-2.67 6.32-8.34 17.35-12.59 24.5-4.25 7.15-11.18 17.27-15.4 22.5-4.22 5.23-10.99 12.9-15.05 17.06-4.05 4.16-10.52 10.24-14.37 13.51-3.85 3.27-10.82 8.7-15.5 12.06-4.68 3.37-12.55 8.45-17.5 11.29-4.95 2.84-13.27 7.24-18.5 9.77-5.23 2.53-11.19 5.21-13.25 5.95-3.54 1.28-3.83 1.23-5.22-0.89-0.8-1.24-13.17-37.57-27.48-80.75-14.3-43.18-26.02-78.84-26.03-79.25-0.01-0.41 1.67-1.81 3.73-3.11 2.06-1.3 6.16-4.56 9.1-7.25 3.62-3.3 6.58-7.32 9.11-12.39 2.11-4.21 4.09-9.91 4.5-13 0.53-3.94 0.27-7.35-0.91-12-0.92-3.57-2.8-8.75-4.18-11.5-1.38-2.75-3.72-6.28-5.19-7.86-1.47-1.57-5.16-4.53-8.18-6.59-3.02-2.05-7.53-4.52-10-5.47-3.58-1.39-6.76-1.67-15.5-1.36-8.68 0.3-11.84 0.82-15 2.46-2.2 1.15-6.48 4.1-9.5 6.55-3.03 2.45-6.71 6.67-8.2 9.37-1.48 2.69-3.63 7.6-4.76 10.9-1.17 3.39-2.06 8.5-2.06 11.75 0.01 3.63 0.94 8.24 2.52 12.5 1.37 3.71 3.62 8.44 5 10.5 1.37 2.06 5.49 5.89 9.15 8.5 3.66 2.61 7.5 5.43 8.53 6.25 1.81 1.44 0.82 4.66-25.4 82.83-27.23 81.17-27.28 81.32-29.78 80.72-1.38-0.33-10.15-4.37-19.5-8.97-9.35-4.6-21.05-11.04-26-14.3-4.95-3.26-11.93-8.37-15.5-11.35-3.58-2.98-9.83-8.57-13.91-12.42-4.07-3.86-11.21-11.28-15.87-16.51-4.66-5.23-11.62-14.23-15.47-20-3.85-5.77-8.97-14.44-11.37-19.25-2.41-4.81-6.22-13.36-8.47-19-2.25-5.64-5.63-15.65-7.51-22.25-1.89-6.6-4.1-15.6-4.92-20-0.83-4.4-1.93-14.75-2.46-23-0.63-9.86-0.61-20.14 0.06-30 0.56-8.25 2.15-20.62 3.52-27.5 1.37-6.87 4.3-17.9 6.51-24.5 2.2-6.6 6.59-17.4 9.75-24 3.15-6.6 8.18-16.05 11.16-21 2.98-4.95 8.86-13.27 13.07-18.5 4.2-5.22 14.14-15.8 22.09-23.5 7.95-7.7 16.89-15.88 19.88-18.17 2.99-2.3 11.06-7.41 17.94-11.37 6.87-3.96 16.77-9.11 22-11.44 5.22-2.33 13.77-5.63 19-7.33 5.22-1.71 13.1-3.98 17.5-5.06 4.4-1.07 11.15-2.45 15-3.05 3.85-0.61 8.35-1.29 10-1.52zm23.16 298.69c0.88-1.79 1.99-3.25 2.47-3.25 0.48 0 1.8 2.14 2.94 4.75 1.13 2.61 4.23 10.6 6.87 17.75 2.65 7.15 5.54 15.36 8.06 23.5l-5.75 9.12c-3.16 5.01-7.4 10.97-9.42 13.25-3.6 4.04-3.71 4.09-5.26 2.13-0.87-1.1-4.96-6.61-9.08-12.25-4.12-5.64-7.39-10.9-7.27-11.69 0.12-0.8 3.52-10.13 7.54-20.75 4.02-10.62 8.03-20.77 8.9-22.56zm27.3 73.54c1.9-2.53 3.75-4.31 4.12-3.95 0.37 0.36 4.38 10.11 8.92 21.66 4.54 11.55 8.87 22.69 9.63 24.75 0.75 2.06 0.95 3.64 0.43 3.5-0.51-0.14-5.57-4.38-11.25-9.44-5.67-5.05-13.15-12.03-22.91-21.81l3.8-5.05c2.09-2.78 5.35-7.12 7.26-9.66zm-58.23 4.37c1.34-2.97 2.93-5.15 3.59-4.93 0.65 0.23 3.76 3.76 6.92 7.84 3.16 4.09 5.75 7.77 5.75 8.18 0.01 0.41-4.42 5.36-9.84 11-5.42 5.64-12.41 12.27-15.53 14.75-3.12 2.48-5.99 4.15-6.39 3.72-0.4-0.43 2.38-8.53 6.18-18 3.8-9.47 7.99-19.62 9.32-22.56zm31.5 26.9l4.64 3.89c2.55 2.14 7.33 6.43 10.63 9.53 4.81 4.53 5.74 5.88 4.7 6.83-0.79 0.73-5.86 1.33-13 1.55-6.44 0.19-15.41 0.08-19.95-0.25-4.54-0.34-8.32-1.02-8.41-1.52-0.08-0.5 4.69-5.21 10.62-10.47zm-125.7-304.81c-3.07 3.43-8.39 10.18-11.81 14.99-3.42 4.8-8.35 12.45-10.95 17-2.59 4.54-6.58 13.21-8.86 19.26-2.28 6.05-5.22 15.72-6.53 21.5-1.31 5.77-3.11 15.9-4 22.5-1.13 8.39-1.44 15.6-1.03 24 0.32 6.6 1.51 17.4 2.65 24 1.13 6.6 3.64 16.72 5.58 22.5 1.93 5.77 6.15 15.9 9.37 22.5 3.22 6.6 8.99 16.72 12.83 22.5 3.84 5.77 9.62 13.37 12.85 16.88 4.57 4.98 6.31 6.25 7.87 5.77 1.1-0.34 5.15-3.73 9-7.54l7-6.92c-9.42-12.16-14.89-19.74-18.22-24.69-3.33-4.95-7.68-12.27-9.67-16.25-1.99-3.99-5.36-12.32-7.49-18.5-2.13-6.19-4.47-14.63-5.21-18.75-0.86-4.83-1.32-15.17-1.29-29 0.04-16.69 0.45-23.29 1.81-29.5 0.97-4.4 3.23-12.05 5.03-17 1.79-4.95 4.96-12.38 7.03-16.5 2.07-4.13 5.65-10.43 7.97-14 2.31-3.58 7.72-11 12.02-16.5l7.82-10c-12.25-11.25-16.34-14.51-17-14.51-0.65 0-3.7 2.82-6.77 6.26zm242.97-4.37c-1.65 1.04-5.03 3.94-7.5 6.46-2.86 2.89-4.24 5.04-3.77 5.86 0.4 0.71 5.23 7.6 10.72 15.3 5.49 7.7 12.47 18.95 15.5 25 3.03 6.05 7.06 15.72 8.95 21.5 1.93 5.88 3.98 14.89 4.66 20.5 0.78 6.44 1.02 17.12 0.67 30-0.42 15.4-1.01 21.83-2.57 28-1.11 4.4-3.66 12.27-5.65 17.5-1.99 5.22-5.68 13.32-8.2 18-2.52 4.67-5.83 10.3-7.37 12.5-1.53 2.2-6.27 8.05-10.54 13l-7.75 9c11.5 10.88 15.86 14.37 17.1 14.77 1.87 0.6 3.01-0.15 6.83-4.52 2.52-2.89 8.03-10.43 12.25-16.75 4.23-6.33 9.76-15.55 12.3-20.5 2.55-4.95 6.24-13.05 8.2-18 1.96-4.95 4.77-13.28 6.23-18.5 2.47-8.83 2.7-11.32 3.18-35 0.36-17.52 0.14-28.16-0.71-34-0.68-4.68-2.34-12.33-3.7-17-1.35-4.68-4.27-13-6.47-18.5-2.2-5.5-5.82-13.38-8.03-17.5-2.22-4.13-6.58-11.29-9.68-15.91-3.11-4.62-8.8-11.71-12.65-15.75-3.85-4.04-7.45-7.35-8-7.34-0.55 0-2.35 0.85-4 1.88zm-196.05 49.87c-2.51 3.16-7 9.8-9.98 14.75-2.98 4.95-6.35 11.7-7.48 15-1.14 3.3-2.71 8.47-3.51 11.5-0.79 3.02-2.14 10.45-2.99 16.5-1.41 10.01-1.41 11.98 0.06 22 0.88 6.05 2.71 14.37 4.06 18.5 1.35 4.12 4.75 12 7.55 17.5 2.79 5.5 6.79 12.47 8.87 15.5 2.09 3.02 5.15 7.07 6.82 9l3.02 3.5 17.63-17.3c-7.16-9.07-11.29-15.08-13.79-19.2-2.5-4.13-5.56-10.43-6.81-14-1.9-5.42-2.35-9.17-2.7-22.5-0.33-12.62-0.08-17.38 1.22-22.5 0.9-3.58 3.53-10.33 5.85-15 2.31-4.68 6.87-11.88 10.13-16l5.93-7.5c-12.66-12.02-17-15.5-17.82-15.5-0.82 0-3.54 2.58-6.06 5.75zm148.62-2.87c-2.35 1.59-5.58 4.62-7.18 6.75-1.6 2.13-2.92 4.32-2.93 4.87-0.01 0.55 2.52 4.82 5.63 9.5 3.1 4.67 7.16 11.53 9.02 15.25 1.86 3.71 4.12 9.56 5.01 13 1.16 4.43 1.64 10.74 1.66 21.75 0.02 11.46-0.42 17.19-1.68 22-0.94 3.57-3.3 9.65-5.24 13.5-1.94 3.85-6.25 10.6-9.58 15l-6.04 8c13.31 13.17 17.36 16.77 17.58 16.5 0.21-0.28 3.62-4.78 7.57-10 3.94-5.23 9.36-13.78 12.04-19 2.68-5.23 5.71-12.2 6.72-15.5 1.58-5.14 1.85-9.54 1.85-30.5 0-20.97-0.27-25.37-1.85-30.5-1.01-3.3-4.16-10.5-6.99-16-2.83-5.5-7.12-12.7-9.53-16-2.41-3.3-5.57-7.25-7.01-8.78-1.44-1.52-3.11-2.76-3.7-2.75-0.59 0.02-2.99 1.32-5.35 2.91z"/>
		</g>
	</g>
</svg>