<svg version="1.2" xmlns="http://www.w3.org/2000/svg" viewBox="13.05534502941722 131.8933 935.115754970583 696.2134000000001" width="936" height="698">
	<style>
		.s0 { fill: #f3842d } 
		.s1 { fill: #ed722f } 
		.s2 { fill: #ee742a } 
		.s3 { fill: #eb6b29 } 
		.s4 { fill: #f0782b } 
		.s5 { fill: #eb6a29 } 
		.s6 { fill: #f48936 } 
		.s7 { fill: #fefdfc } 
		.s8 { fill: #e96528 } 
		.s9 { fill: #e96428 } 
		.s10 { fill: #e8612a } 
		.s11 { fill: #e75d27 } 
		.s12 { fill: #e4562a } 
		.s13 { fill: #e65e2d } 
		.s14 { fill: #e95e04 } 
		.s15 { fill: #ea6302 } 
		.s16 { fill: #e24f24 } 
		.s17 { fill: #e24e24 } 
		.s18 { fill: #e55727 } 
		.s19 { fill: #df4523 } 
		.s20 { fill: #e04825 } 
		.s21 { fill: #e14924 } 
		.s22 { fill: #e14b25 } 
		.s23 { fill: #e55627 } 
		.s24 { fill: #e35126 } 
		.s25 { fill: #e34d19 } 
		.s26 { fill: #000000 } 
	</style>
	<g id="Layer 1">
		<g id="Group 00000019640606025486413900000015313691359284137104 ">
			<g id="Rectangle-5 00000169519632564942712130000013913869828697499832 ">
				<path id="path-1 00000157308249678767280570000016579411645355597702 " class="s0" d="m320.79 131.89h319.64c41.51 0 75.15 33.65 75.15 75.15v319.64c0 41.51-33.64 75.15-75.15 75.15h-319.64c-41.5 0-75.15-33.64-75.15-75.15v-319.64c0-41.5 33.65-75.15 75.15-75.15z"/>
			</g>
			<g id="&lt;Group&gt;">
				<g id="Group-94 00000057834320291208368250000015447825625757124791 ">
					<g id="&lt;Group&gt;">
						<path id="Fill-4 00000069361517859399942280000000231061763138145184 " fill-rule="evenodd" class="s1" d="m579.02 600.65h-31.3c-2.07-4.28-0.15-7.09 2.95-10.19 21.85-21.55 43.55-43.25 65.11-64.96 1.92-1.92 3.25-4.43 4.87-6.64 1.48 0 2.95 0 4.58 0 0.88 0 1.62-0.3 2.51-0.44-0.89-0.3-1.63-0.59-2.51-0.59-20.08 0-40.16 0-60.09 0 0-0.45-0.3-0.89-0.45-1.33 19.79 0 39.42 0 59.21 0.14 6.35 0 6.49 0 6.49-6.34q0-50.94 0-101.88 0-25.91 0-51.82c0.3 0.59 0.74 1.04 1.04 1.63q0 75.07 0 150.15c0 1.92 0.44 3.84 0.59 5.75q0.22-2.87 0.44-5.75c2.22-1.63 4.73-2.96 6.64-4.88 21.27-21.11 42.38-42.22 63.64-63.19 3.54-3.54 7.82-6.49 11.66-9.89v42.82c-0.88-0.3-1.92-0.3-2.36-0.89-3.1-3.39-5.46-2.36-8.56 0.59-40.31 40.31-80.76 80.61-121.07 120.92-1.62 1.62-2.36 4.43-3.54 6.64"/>
						<path id="Fill-6 00000021839382784652824750000017810684756590644149 " fill-rule="evenodd" class="s2" d="m579.02 600.65c1.18-2.21 1.77-4.87 3.54-6.64 40.3-40.31 80.76-80.61 121.06-120.92 2.96-2.95 5.32-3.99 8.57-0.59 0.44 0.59 1.62 0.59 2.36 0.89v29.82c-1.03 0.88-2.36 1.77-3.25 2.8-3.39 4.43-6.05 9.45-9.89 13.29-22.59 22.89-45.47 45.47-68.21 68.36-4.28 4.28-8.86 7.53-14.62 9.15-2.06 0.59-3.69 2.36-5.61 3.69h-33.81z"/>
						<path id="Fill-8 00000039128635113105966900000004034107958175421084 " fill-rule="evenodd" class="s3" d="m714.55 430.57c-3.99 3.25-8.12 6.2-11.66 9.89-21.26 20.97-42.38 42.23-63.64 63.19-1.92 1.92-4.43 3.25-6.64 4.87q0-28.56 0-57.13c2.07-1.48 4.43-2.66 6.2-4.43 16.09-15.95 32.19-32.04 48.28-48.13 5.31-5.32 10.48-10.93 15.8-16.39l11.66 10.33v37.65z"/>
						<path id="Fill-10 00000055665536442327872750000011221031146522490018 " fill-rule="evenodd" class="s4" d="m612.97 600.65c1.77-1.33 3.55-3.1 5.61-3.69 5.76-1.77 10.34-5.02 14.62-9.15 22.74-22.74 45.62-45.33 68.21-68.36 3.84-3.84 6.5-8.86 9.89-13.29 0.89-1.18 2.22-1.92 3.25-2.8 0 31.44 0 62.74 0 94.19 0 2.81-0.59 3.4-3.4 3.4q-49.16 0-98.32 0"/>
						<path id="Fill-12 00000139269635887482432260000009314595960169392547 " fill-rule="evenodd" class="s5" d="m620.8 519.01c-1.63 2.21-2.96 4.72-4.87 6.64-21.71 21.7-43.41 43.41-65.11 64.96-3.1 3.1-4.88 5.91-2.96 10.19h-48.13c-1.33-2.22-2.65-4.28-3.98-6.5 1.77-1.92 3.39-3.98 5.16-5.76 20.23-20.22 40.46-40.3 60.54-60.53 2.51-2.51 3.98-5.9 5.9-9 17.87 0 35.58 0 53.45 0z"/>
						<path id="Fill-14 00000145743185059554558090000016998255319779529140 " fill-rule="evenodd" class="s6" d="m610.32 133.22c-2.22 0.59-4.58 1.77-6.8 1.77-77.51 0-154.87 0-232.38 0-2.22 0-4.58-1.18-6.79-1.77h246.11z"/>
						<path id="Fill-16 00000031904010008549222560000005064868172984452796 " fill-rule="evenodd" class="s7" d="m630.39 356.75q0 25.91 0 51.82 0 50.94 0 101.87c0 6.35 0 6.35-6.49 6.35-19.79 0-39.42 0-59.21-0.15-0.14-7.53-0.29-14.91-0.59-22.44 0-0.74-0.14-1.33-0.29-2.06-0.59 0.59-1.33 1.32-1.92 1.91-1.33 0.45-2.81 0.6-4.13 1.19-9.9 4.57-19.79 9.3-29.68 13.87-9.45 2.37-18.9 5.02-28.35 7.24-2.95 0.74-6.05 0.29-9.15 0.44-1.33 0-2.66-0.15-3.84-0.15-14.62 0-29.08 0-43.26-4.13-2.95-0.89-5.9-1.62-8.86-2.51-0.59-0.59-1.18-1.18-1.77-1.62 0-0.89 0-1.63 0-2.51 0-0.45 0-1.04 0-1.48q0-19.49 0-38.98c0-5.61 0-11.22 0-16.98v-7.82q0-7.09 0-14.17c0-1.33 0-2.51 0-3.84 0.3-0.45 0.3-0.74 0.15-1.18 1.48 0.88 2.95 1.47 4.28 2.51 7.38 5.61 15.5 9.74 24.66 11.36 22 6.21 42.07 1.63 60.38-11.22 13.14-9.3 21.85-21.99 26.28-37.5 1.48-5.16 0.74-6.2-4.58-6.35-4.57 0-9.15 0-13.58 0-3.69-0.14-5.76 1.19-7.23 4.73-7.98 18.75-23.77 26.87-42.97 29.82-2.95-0.44-5.9-0.74-8.85-1.33-10.63-2.51-19.2-8.41-27.02-15.94-0.59-0.59-1.04-1.18-1.63-1.77h0.3c-5.61-7.98-9.3-16.83-10.04-26.73q0-0.66 0-1.32c0.15-21.12 9.89-36.03 29.23-44.59 3.1-1.33 3.84-3.69 3.84-6.5 0-4.57 0-9 0-13.58 0-4.13-1.18-5.32-5.17-5.17-1.47 0-2.95 0.59-4.43 1.04-28.49 10.18-46.06 35.58-47.68 61.12-0.3 0.44-0.3 0.74 0 1.18 0 6.05 0 12.11-0.15 18.31 0 15.2 0 30.26 0 45.47 0 20.37 0 40.75 0 61.27 0 1.48-0.15 2.95-0.3 4.43-0.14 2.21-0.44 4.58-0.73 6.79-2.07-1.03-4.29-1.92-6.21-2.95-4.28-2.36-8.56-4.87-12.84-7.38-13.14-12.7-26.43-25.4-36.32-41.05-33.07-51.82-29.68-122.69 8.42-170.82 25.83-32.63 59.2-52.85 100.39-57.28 62.16-6.65 111.03 17.27 146.16 68.95q1.11 1.55 2.22 3.1c0.59 0.88 1.33 1.92 1.92 2.8h-0.15c2.36 5.02 4.87 10.04 7.09 15.06 6.79 15.5 10.19 31.74 11.96 48.43zm-121.07-26.73c0 0 1.18 1.04 1.77 1.48 1.48 1.63 3.1 3.1 4.73 4.73 5.9 8.12 10.48 16.83 11.07 27.01 0.15 3.1 2.07 3.84 4.87 3.84 5.17 0 10.34-0.15 15.51 0 3.39 0.15 4.57-1.03 4.28-4.43-1.63-16.68-7.09-31.74-19.2-43.99-2.95-2.81-5.75-5.61-8.85-8.27-11.52-9.75-25.55-13.29-40.16-14.77-1.92-0.14-3.4 0-3.4 2.51q0 9.75 0 19.49c0 0.89 1.33 2.37 2.07 2.37 9.15 0 17.12 3.98 24.95 8.12 0.74 0.59 1.62 1.32 2.36 1.91zm24.95-33.66c0 0 1.18 0.74 1.77 1.18 6.35 7.24 12.85 14.47 19.2 21.71 0.88 1.33 1.77 2.8 2.66 4.13 0.59 0.74 1.03 1.77 1.62 2.66 0.44 0.74 0.74 1.48 1.18 2.21 3.54 9.45 7.09 18.9 7.97 29.09 0.89 9.74 0.89 9.74 10.63 9.74 4.43 0 9.01-0.29 13.44-0.44 0-4.58 0-9.3-0.44-13.88-1.63-13.43-5.17-26.13-12.11-37.79 0-0.45 0-0.74-0.59-0.89-0.44-1.03-1.03-1.92-1.48-2.95-0.88-0.89-1.77-1.92-2.66-2.96-4.87-10.18-11.81-18.6-20.66-25.54-0.45-0.44-1.04-0.88-1.48-1.33q-1.11-0.88-2.22-1.77c0 0-1.03-0.74-1.62-1.18-12.55-10.48-27.02-16.98-42.82-20.96-1.92-0.45-3.98-0.45-5.9-0.59-5.91-0.89-11.81-1.92-17.87-2.51-0.88 0-2.65 1.47-2.8 2.21-0.15 6.2 0 12.55 0 18.75 0 2.51 1.48 3.1 3.84 3.25 18.01 0.59 34.25 6.79 48.87 16.98 0 0 0.88 0.59 1.33 0.88zm-81.65 66.29c0 18.75 10.93 30.86 25.25 31.75 15.06 0.88 27.61-9.45 29.38-24.22 1.62-12.99-6.65-25.98-19.34-29.23-3.55-0.89-7.53-0.15-11.22 0-3.1 0.3-6.65 0.15-9.16 1.62-9.45 5.02-14.61 13.14-14.91 20.08q0 0 0 0z"/>
						<path id="Fill-18 00000155854343354953517610000008481809197552164004 " fill-rule="evenodd" class="s8" d="m528.08 509.26c9.89-4.57 19.78-9.3 29.68-13.88 1.32-0.59 2.8-0.73 4.13-1.18q1.11 0 2.21 0c0.15 7.53 0.3 14.91 0.59 22.44 0 0.45 0.3 0.89 0.45 1.33l2.21 1.04c-1.92 2.95-3.54 6.49-5.9 9-20.08 20.23-40.31 40.31-60.54 60.53-1.77 1.78-3.39 3.84-5.16 5.76-8.27-8.27-16.54-16.39-24.81-24.65 1.63-1.77 2.96-3.69 4.73-5.32 13.88-13.88 27.9-27.61 41.63-41.63 3.99-4.14 7.24-8.86 10.93-13.44"/>
						<path id="Fill-20 00000175280856673709934280000002427454837126631600 " fill-rule="evenodd" class="s9" d="m702.74 382.59c-5.32 5.46-10.48 10.92-15.8 16.38-16.09 16.1-32.19 32.19-48.28 48.14-1.77 1.77-4.13 2.95-6.2 4.42 0-20.81 0-41.48 0-62.3 2.07-1.48 4.43-2.66 6.2-4.43 8.42-8.12 16.39-16.53 24.95-24.65 3.1-2.96 5.61-5.91 6.65-10.04 10.77 10.77 21.7 21.7 32.48 32.48z"/>
						<path id="Fill-22 00000121260433582119479040000002611224268696967095 " fill-rule="evenodd" class="s10" d="m528.08 509.26c-3.54 4.43-6.94 9.3-10.93 13.44-13.73 14.02-27.75 27.75-41.63 41.63-1.62 1.63-3.1 3.55-4.72 5.32-9.16-9.16-18.31-18.16-27.32-27.32 7.09-1.92 10.93-7.97 15.8-12.69 3.54-3.4 6.05-8.86 10.19-10.63 4.43-1.78 10.18 0 15.2-0.3 1.92 0 3.84-1.18 5.61-1.92 3.1 0 6.2 0.15 9.16-0.44 9.45-2.22 18.9-4.73 28.34-7.24"/>
						<path id="Fill-24 00000179629709021303174940000007688538325661508777 " fill-rule="evenodd" class="s11" d="m670.26 350.11c-1.04 4.13-3.55 7.08-6.65 10.04-8.41 7.97-16.53 16.53-24.95 24.65-1.77 1.77-4.13 2.95-6.2 4.43q0-11.29 0-22.59c0-2.66-0.59-5.46-1.03-8.12-0.3-0.59-0.74-1.03-1.04-1.62-1.77-16.69-5.16-33.07-11.95-48.43-2.22-5.02-4.73-10.04-7.09-15.06 1.62 0.89 3.69 1.33 5.02 2.51 17.72 17.57 35.28 35.14 52.85 52.71 0.45 0.44 0.74 1.03 1.18 1.62"/>
						<path id="Fill-26 00000164493493486992673360000012698807403678124427 " fill-rule="evenodd" class="s12" d="m432.85 508.52c0 0 1.18 1.18 1.77 1.63 1.77 7.08-2.21 11.81-10.48 12.69-11.81-11.81-23.62-23.62-35.29-35.28 4.29 2.51 8.57 5.02 12.85 7.38 2.07 1.18 4.13 2.07 6.2 2.95 0.3-2.21 0.44-4.57 0.74-6.79 0-1.47 0.15-2.95 0.29-4.43 1.48-1.33 3.1-2.65 4.29-4.13 5.02-6.5 10.03-12.85 17.56-16.83q0 16.39 0 32.77c0 2.07 1.33 4.14 2.07 6.2 0 0.45 0 1.04 0 1.48-0.74 0.89-2.21 1.77 0 2.51"/>
						<path id="Fill-28 00000020399749239769618970000000965344593408846506 " fill-rule="evenodd" class="s13" d="m424.14 522.84c8.27-0.88 12.25-5.61 10.48-12.69 2.96 0.88 5.91 1.62 8.86 2.51 14.18 4.13 28.64 4.28 43.26 4.13 1.33 0 2.66 0 3.84 0.15-1.92 0.59-3.69 1.77-5.61 1.92-5.17 0.15-10.93-1.48-15.21 0.29-4.13 1.78-6.64 7.09-10.19 10.63-4.87 4.73-8.71 10.78-15.79 12.7q-9.75-9.74-19.49-19.49"/>
						<path id="Fill-30 00000108998487472457832900000015152429057095416494 " fill-rule="evenodd" class="s11" d="m611.5 293.26c-0.59-0.88-1.33-1.92-1.92-2.8 0.59 0.88 1.33 1.92 1.92 2.8z"/>
						<path id="Fill-32 00000031917523461853675010000000111930247465351063 " fill-rule="evenodd" class="s14" d="m631.43 358.37c0.44 2.66 1.33 5.47 1.47 8.12 0.15 7.53 0 15.06 0 22.59 0 20.82 0 41.49 0 62.31q0 28.57 0 57.13c-0.29 1.92-0.44 3.84-0.73 5.76-0.3-1.92-0.89-3.84-0.89-5.76q0-75.07 0-150.15"/>
						<path id="Fill-34 00000046306293935263991230000004021119168761232291 " fill-rule="evenodd" class="s15" d="m567.35 519.45l-2.21-1.48c20.08 0 40.16 0 60.09 0 0.88 0 1.62 0.59 2.51 0.89-0.89 0.15-1.63 0.44-2.51 0.59-1.48 0-2.96 0-4.58 0-17.86 0-35.58 0-53.45 0"/>
						<path id="Fill-36 00000052089366979758833900000005249243896221664902 " fill-rule="evenodd" class="s16" d="m430.64 465.71c-7.38 3.98-12.55 10.33-17.57 16.83-1.18 1.62-2.95 2.8-4.28 4.13 0-20.37 0-40.75 0-61.27 2.21-1.18 4.72-1.92 6.49-3.54 7.09-6.79 13.88-13.88 20.97-20.82 1.92-1.92 4.43-3.25 6.64-4.87h-0.29c0 0 1.03 1.18 1.62 1.77 7.68 7.53 16.39 13.44 27.02 15.95 2.95 0.73 5.9 0.88 8.86 1.32-0.89 1.19-1.78 2.22-2.81 3.4-5.17 5.76-10.33 11.37-15.5 17.13-9.15-1.77-17.27-5.76-24.66-11.37-1.33-1.04-2.95-1.63-4.28-2.51 0 0.44 0 0.74-0.15 1.18 0 1.33 0 2.51 0 3.84-2.95 4.13-2.95 10.04 0 14.17v2.66c-2.8 1.77-2.8 3.4 0 5.17 0 5.61 0 11.22 0 16.98h-2.06"/>
						<path id="Fill-38 00000138533834596595818440000002643450921243097518 " fill-rule="evenodd" class="s17" d="m452.64 362.65c0.14-6.93 5.46-15.05 14.91-20.07 2.65-1.33 6.05-1.33 9.15-1.63 3.69-0.29 7.83-1.03 11.22 0 12.7 3.25 20.97 16.24 19.34 29.23-1.92 14.77-14.32 25.1-29.38 24.22-14.32-0.89-25.39-12.99-25.24-31.75z"/>
						<path id="Fill-40 00000042711756588149455520000007545592963475278469 " fill-rule="evenodd" class="s18" d="m461.94 435.74c5.16-5.76 10.33-11.37 15.5-17.13 1.03-1.03 1.92-2.21 2.8-3.39 19.2-2.96 34.85-11.08 42.97-29.83 1.47-3.54 3.54-5.02 7.23-4.72 4.58 0.14 9.16 0 13.58 0 5.32 0 6.06 1.18 4.58 6.35-4.43 15.5-13.14 28.19-26.28 37.5-18.31 12.84-38.38 17.42-60.38 11.22z"/>
						<path id="Fill-42 00000088843416665851204040000015100109401438408078 " fill-rule="evenodd" class="s19" d="m408.79 379.93c0-6.05 0-12.11 0.14-18.31l0.3-0.29c0-0.3 0-0.59-0.15-0.89 1.48-25.69 19.05-50.94 47.69-61.12 1.48-0.45 2.95-1.04 4.43-1.04 3.98 0 5.02 1.04 5.17 5.17 0 4.58 0 9.01 0 13.58 0 2.96-0.74 5.17-3.84 6.5-19.34 8.56-29.09 23.48-29.24 44.59q0 0.66 0 1.33c-0.59-0.45-1.47-0.89-1.91-1.63-2.51-4.13-2.66-4.28-6.21-1.03-3.39 3.25-6.49 6.79-10.04 9.74-1.62 1.48-3.98 2.07-6.05 3.1"/>
						<path id="Fill-44 00000136388325429943253060000013772690708610876343 " fill-rule="evenodd" class="s20" d="m532.95 295.33c-14.76-10.19-30.86-16.53-48.87-16.98-2.36 0-3.84-0.74-3.84-3.25 0-6.2-0.14-12.55 0-18.75 0-0.88 1.92-2.36 2.81-2.21 5.9 0.59 11.96 1.62 17.86 2.51 1.92 0.29 3.99 0.15 5.91 0.59 15.8 3.99 30.27 10.48 42.82 20.82-4.88 1.18-7.39 5.61-10.93 8.41-3.1 2.36-5.17 5.02-5.61 8.86"/>
						<path id="Fill-46 00000047766424374038702820000002139503509502151300 " fill-rule="evenodd" class="s21" d="m408.79 379.93c2.06-1.03 4.28-1.63 6.05-3.1 3.54-3.1 6.64-6.65 10.04-9.75 3.54-3.24 3.69-3.1 6.2 1.04 0.44 0.59 1.33 1.03 1.92 1.62 0.74 9.89 4.43 18.6 10.04 26.72-2.22 1.63-4.73 2.96-6.65 4.88-7.08 6.79-13.87 14.02-20.96 20.81-1.77 1.63-4.28 2.37-6.5 3.55v-45.48"/>
						<path id="Fill-48 00000137813800539975226200000009656853916770878371 " fill-rule="evenodd" class="s22" d="m515.83 336.08c-1.63-1.62-3.11-3.1-4.73-4.72-0.59-0.45-1.18-1.04-1.77-1.48-0.74-0.44-1.62-1.18-2.36-1.77-7.83-4.14-15.65-8.12-24.95-8.12-0.74 0-2.07-1.48-2.07-2.37-0.15-6.49 0-12.99 0-19.48 0-2.51 1.48-2.81 3.39-2.51 14.62 1.47 28.5 5.02 40.16 14.76 3.1 2.66 5.91 5.46 8.86 8.27-5.46 5.76-10.92 11.66-16.53 17.42z"/>
						<path id="Fill-50 00000066497944825254946140000014936610256060264859 " fill-rule="evenodd" class="s23" d="m580.05 314.67c6.94 11.67 10.48 24.51 12.11 37.8 0.59 4.57 0.29 9.3 0.44 13.88-4.43 0.14-9.01 0.44-13.44 0.44-9.74 0-9.74 0-10.63-9.75-0.88-10.18-4.43-19.63-7.97-29.08 5.32-0.3 6.79-5.46 10.34-8.27 2.8-2.36 5.16-5.31 9.3-5.17"/>
						<path id="Fill-52 00000098911495304623816430000006163616801482891651 " fill-rule="evenodd" class="s17" d="m580.05 314.67c-4.13 0-6.5 2.95-9.3 5.17-3.4 2.8-4.87 7.97-10.34 8.27-0.44-0.74-0.74-1.48-1.18-2.22-0.59-0.88-1.03-1.92-1.62-2.8q-1.33-2-2.66-3.99c-6.35-7.23-12.84-14.47-19.19-21.7l-1.77-1.33c0 0-0.89-0.44-1.33-0.74 0.44-3.84 2.51-6.5 5.61-8.86 3.69-2.8 6.05-7.23 10.92-8.41 0 0 1.04 0.88 1.63 1.33 0.73 0.44 1.47 1.18 2.21 1.77 0 0 1.03 0.88 1.48 1.33 8.86 6.93 15.94 15.35 20.67 25.54 0.88 1.03 1.77 2.06 2.65 2.95 0.45 0.89 1.04 1.77 1.48 2.81 0.44 0 0.59 0.44 0.59 0.88"/>
						<path id="Fill-54 00000167396724700689658290000009293595845285467839 " fill-rule="evenodd" class="s24" d="m515.83 336.08c5.46-5.76 10.92-11.66 16.53-17.42 12.11 12.25 17.57 27.31 19.19 44 0.3 3.39-0.88 4.57-4.28 4.42-5.16-0.29-10.33 0-15.5 0-2.66 0-4.58-0.59-4.87-3.83-0.59-10.34-5.17-18.9-11.07-27.02"/>
						<path id="Fill-56 00000145035867523370607680000010324944539897261219 " fill-rule="evenodd" class="s25" d="m430.64 465.71h2.06q0 19.49 0 38.98c-0.73-2.07-1.92-4.14-2.06-6.21-0.15-10.92 0-21.85 0-32.77z"/>
						<path id="Fill-58 00000060727424528585507280000017809174869645383044 " fill-rule="evenodd" class="s25" d="m432.7 441.05c-2.95-4.13-2.95-10.04 0-14.17q0 7.09 0 14.17z"/>
						<path id="Fill-60 00000155848413109320943200000003299069893515111602 " fill-rule="evenodd" class="s25" d="m432.7 448.73c-2.8-1.77-2.8-3.4 0-5.17z"/>
						<path id="Fill-62 00000040564887365919458660000017284094251892030604 " fill-rule="evenodd" class="s1" d="m564.1 494.2h-2.21c0.59-0.74 1.33-1.47 1.92-2.06 0 0.73 0.15 1.32 0.29 2.06z"/>
						<path id="Fill-64 00000014622366418457973530000015190538515031591349 " fill-rule="evenodd" class="s23" d="m555.1 319.1c0.88 1.33 1.77 2.81 2.66 4.13-0.89-1.32-1.78-2.8-2.66-4.13z"/>
						<path id="Fill-66 00000043455497464703339890000011338121898357495217 " fill-rule="evenodd" class="s23" d="m578.13 310.98c-0.89-1.03-1.77-2.07-2.66-2.95 0.89 1.03 1.77 2.07 2.66 2.95z"/>
						<path id="Fill-68 00000087398753354992770950000015959056773173612436 " fill-rule="evenodd" class="s25" d="m433.44 508.52c-3.25-0.73-1.33-1.62 0-2.51 0 0.89 0 1.63 0 2.51z"/>
						<path id="Fill-70 00000028303841083627889610000003382384965278738087 " fill-rule="evenodd" class="s23" d="m557.76 323.09c0.59 0.88 1.18 1.92 1.91 2.8-0.59-0.88-1.18-1.92-1.91-2.8z"/>
						<path id="Fill-72 00000127021651590723791110000014539644380614354613 " fill-rule="evenodd" class="s20" d="m553.18 281.16c-0.74-0.59-1.48-1.33-2.22-1.92 0.74 0.59 1.48 1.33 2.22 1.92z"/>
						<path id="Fill-74 00000121273546473718430140000018215270913859124868 " fill-rule="evenodd" class="s24" d="m507.11 328.25c0.74 0.6 1.63 1.33 2.37 1.92-0.74-0.59-1.63-1.32-2.37-1.92z"/>
						<path id="Fill-76 00000108281461540537197230000007573092944154365856 " fill-rule="evenodd" class="s23" d="m579.9 313.79c-0.59-1.04-1.18-1.92-1.92-2.96 0.59 1.04 1.18 1.92 1.92 2.96z"/>
						<path id="Fill-78 00000170245110445937226090000005232362396789884581 " fill-rule="evenodd" class="s25" d="m433 423.48c0 0 0.15-1.18 0.29-1.77 0.15 0.59 0 1.18-0.29 1.77z"/>
						<path id="Fill-80 00000105413563653727512090000002245982237817874848 " fill-rule="evenodd" class="s21" d="m444.52 398.09c0 0-1.19-1.18-1.92-1.92 0.59 0.59 1.18 1.18 1.92 1.92z"/>
						<path id="Fill-82 00000095296407757371419570000010828138225956656265 " fill-rule="evenodd" class="s20" d="m551.41 279.98c0 0-1.18-1.18-1.92-1.92 0.59 0.59 1.18 1.18 1.92 1.92z"/>
						<path id="Fill-84 00000137101291441089284920000003312007051524206213 " fill-rule="evenodd" class="s24" d="m509.33 330.03c0 0 1.18 1.18 1.92 1.92-0.59-0.59-1.18-1.19-1.92-1.92z"/>
						<path id="Fill-86 00000119078625602018571760000016367791673235480194 " fill-rule="evenodd" class="s20" d="m534.13 296.07c0 0 1.18 1.18 1.92 1.92-0.59-0.59-1.18-1.18-1.92-1.92z"/>
						<path id="Fill-88 00000160877997856928387110000005551821668447692716 " fill-rule="evenodd" class="s20" d="m532.95 295.48c0 0 1.18 0.88 1.92 1.33-0.59-0.45-1.18-0.89-1.92-1.33z"/>
						<path id="Fill-90 00000181793496800697718110000012975612232699535765 " fill-rule="evenodd" class="s12" d="m409.38 360.59c0 0 0.29 0.74 0.29 1.18 0 0.15-0.29 0.29-0.44 0.44-0.3-0.59-0.3-1.18 0-1.62"/>
						<path id="Fill-92 00000010285134598126373570000017771133516247361177 " fill-rule="evenodd" class="s20" d="m554.95 282.93c0 0-1.18-1.18-1.92-1.92 0.59 0.59 1.18 1.18 1.92 1.92z"/>
					</g>
				</g>
			</g>
		</g>
		<g id="&lt;Group&gt;">
			<path id="&lt;Path&gt;" class="s26" d="m246.29 676.64c13.11 8.94 18.55 19.37 16.81 34.57-1.62 14.15-0.19 28.62-0.48 42.95-0.41 19.74-17.11 36.88-36.3 37.65-21.76 0.87-39.82-13.8-42.42-34.45-2.5-19.97 11.58-39.9 31.3-43.48 5.34-0.97 11-0.15 17.23-0.15-1.11 5.24-2.12 10.08-3.3 15.65-2.46 0-4.92-0.1-7.37 0.02-12.79 0.59-21.84 10.76-21.46 24.04 0.35 12.06 10.77 22.22 22.88 22.31 12.02 0.1 22.94-10.06 23.05-22.09 0.21-23.11 0.06-46.22 0.06-69.34 0-2.23 0-4.46 0-7.68z"/>
			<path id="&lt;Path&gt;" class="s26" d="m691.79 677.61c14.03 7.73 18.11 19.05 16.8 33.85-1.18 13.31-0.17 26.81-0.3 40.23-0.2 20.44-14.45 37.2-33.62 39.71-20.89 2.75-38.61-8.9-44.33-29.14-7.94-28.1 18.35-54.83 47.52-47.72-0.97 4.18-1.56 8.51-3.13 12.46-0.52 1.31-3.52 2.24-5.42 2.29-12.8 0.29-22.57 8.63-23.77 20.63-1.22 12.15 6.4 22.37 18.81 25.22 13.71 3.15 27.41-8.17 27.42-22.7q0.02-34.35 0.02-68.71c0-2.01 0-4.02 0-6.12z"/>
			<path id="&lt;Path&gt;" class="s26" d="m27.77 828.11c-4.5-4.84-9.13-9.56-13.41-14.58-1.02-1.19-1.2-3.38-1.21-5.11-0.08-18.73-0.16-37.46-0.01-56.19 0.15-19.38 15.76-37.11 33.83-38.78 21.61-2 40.03 10.98 44.33 31.21 5.9 27.84-20.81 53.56-47.82 45.59 1-4.64 2.01-9.31 3.14-14.57 3.38 0 6.62 0.38 9.73-0.07 12.47-1.83 20.68-13.54 19.14-26.98-1.25-10.95-12.43-19.77-24.31-19.18-12.33 0.61-21.56 10.04-21.71 22.49-0.15 12.49-0.04 24.98-0.04 37.46q0 18.72 0 37.44-0.83 0.63-1.66 1.27z"/>
			<path id="&lt;Path&gt;" class="s26" d="m759.52 729.72c-21.33-3-31.88 15.1-27.49 29.59 3.14 10.38 14.75 17.99 24.47 16.37 12.63-2.1 21.21-11.74 21.27-24.27 0.1-22.18 0.04-44.36 0.05-66.54q0-3.3 0-6.59 1.03-0.66 2.05-1.32c4.08 4.6 8.36 9.04 12.13 13.88 1.25 1.6 1.63 4.23 1.65 6.4 0.12 18.95 0.47 37.91-0.06 56.85-0.46 16.27-8.93 28.2-23.74 34.41-15.23 6.38-30.12 4.46-42.47-7.15-11.69-11-15.75-24.65-10.8-40.27 6.61-20.81 24.53-31.03 47.01-26.71-1.34 5.04-2.67 10.05-4.07 15.35z"/>
			<path id="&lt;Compound Path&gt;" class="s26" d="m98.77 752.5c-0.19-20.81 16.44-38.15 35.91-39.2 25.8-1.38 42.25 18.6 42.71 38.35 0.49 21.59-17.47 39.95-39.04 40.16-22.07 0.23-39.37-16.97-39.58-39.31zm39.26-23.12c-13.1-0.1-23.54 10.23-23.38 23.13 0.16 12.56 10.35 22.79 22.95 23.04 12.76 0.26 23.07-10.07 23.24-23.28 0.16-12.64-9.97-22.8-22.81-22.89z"/>
			<path id="&lt;Path&gt;" class="s26" d="m405.65 791.31c0-12.9 0.16-25.11-0.05-37.32-0.25-15.25-10-25.16-23.87-24.64-14.25 0.53-23.15 11.14-21.93 26.14 0.98 12.14 13.32 21.58 26.06 19.94 0.64-0.08 1.29-0.12 2.48-0.22 1.06 5 2.09 9.91 3.13 14.81-21.49 6.82-43.36-8.43-47.79-29.95-3.64-17.69 5.42-35.07 21.65-43.12 15.06-7.47 34.74-3.7 46.35 8.92 6.14 6.68 9.74 14.82 10.31 23.63 0.78 11.97 0.25 24.03 0.24 36.05 0 1.8-0.2 3.59-0.34 5.76-5.32 0-10.31 0-16.24 0z"/>
			<path id="&lt;Path&gt;" class="s26" d="m622.7 791.47c-5.82 0-10.61 0-16.25 0 0-11.9 0.41-23.61-0.18-35.27-0.28-5.57-1.27-11.74-4.02-16.42-5.8-9.9-17.95-13.28-27.87-9.14-9.79 4.09-15.88 15.43-13.98 26.05 1.93 10.81 11.74 18.95 23.13 19.15 1.58 0.03 3.16-0.15 5.11-0.26 1.29 4.9 2.54 9.7 3.9 14.92-16.04 3.44-29.25-0.7-39.48-12.79-10.52-12.43-12.1-26.8-5.66-41.44 6.27-14.22 17.74-22.37 33.52-22.77 25.12-0.64 41.74 16.04 41.78 41.22 0.01 11.97 0 23.95 0 36.75z"/>
			<path id="&lt;Path&gt;" class="s26" d="m891.36 769.62c3.55 3.88 6.96 7.59 10.37 11.3-15 14.7-39.47 14.58-54.75-0.38-15.24-14.92-15.84-39.18-1.34-54.79 14.9-16.05 39.16-17.05 56.18-2.08q-5.45 5.49-10.86 10.92c-15.49-9.16-27.93-5.57-35.08 4.46-5.9 8.29-5.59 20.52 1 28.15 8.75 10.11 19.39 11.07 34.48 2.42z"/>
			<path id="&lt;Path&gt;" class="s26" d="m324.87 769.59c3.97 3.78 7.62 7.26 11.26 10.74-13.87 15.31-38.79 15.42-54.66 0.45-15.79-14.88-16.04-40.57-0.55-56.39 14.54-14.85 40.58-15.14 55.33-0.17-3.62 3.43-7.23 6.85-10.76 10.19-16.27-8.53-27.58-6.41-35.81 5.12-6.27 8.77-4.85 21.73 2.75 29.24 8.85 8.75 20.06 9.14 32.44 0.82z"/>
			<path id="&lt;Path&gt;" class="s26" d="m530.45 713.41c0 5.72 0 10.51 0 15.77-7.33 0-14.41 0-21.43 0-3.26 29.52-1.96 41.88 21.32 47.11 0 4.96 0 9.95 0 14.89-17.04 1.64-35.62-13.33-38.17-31.59-1.42-10.21-0.96-20.7-1.2-31.07-0.15-6.47-0.02-12.95-0.02-19.42 0-18.53 0.84-20.18 17.05-32.74 0 12.46 0 24.53 0 37.05 7.61 0 14.71 0 22.45 0z"/>
			<path id="&lt;Path&gt;" class="s26" d="m948.17 776.52c0 4.77 0 9.56 0 14.28-12.14 3.14-28.79-7.99-33.97-19.18-3-6.5-5.09-13.93-5.43-21.04-0.78-16.36 0.09-32.79-0.42-49.17-0.19-6.29 1.46-10.9 5.94-15.13 3.26-3.07 5.83-6.87 8.71-10.35q0.89 0.71 1.79 1.42c0 11.69 0 23.39 0 35.79 7.83 0 15.32 0 23.23 0 0 5.63 0 10.56 0 16.27q-11.38 0-22.51 0c-1.73 27.63-2.08 40.9 22.66 47.11z"/>
			<path id="&lt;Path&gt;" class="s26" d="m486.92 713.85c0.41 4.85 0.84 9.83 1.25 14.69-18.24 5.78-22.11 10.66-23.74 29.43-1.56 18.14-21.32 35.04-38.94 33.03 0-5.18 0-10.39 0-15.53 16.41-3.64 22.39-10.49 23.17-27.12 0.91-19.54 21.09-37.05 38.26-34.5z"/>
			<path id="&lt;Path&gt;" class="s0" d="m814.7 685.78q0.84 7.74 1.66 15.49c0.07 0.68 0.05 1.38 0.02 2.07-0.46 10.99 0.27 21.58 4.65 32.11 2.67 6.41 2.9 14.03 3.24 21.16 0.42 9.06 2.07 18.57-6.42 27.15-2.14-0.17-8.58 0.59-9.23-1.01-2.06-5.03-9.07-7.75-6.84-14.95 1.04-3.37 0.59-7.38 0.1-11.01-1.49-11.05 3.27-20.32 7.69-29.79 0.83-1.77 0.79-4.03 0.81-6.07 0.1-10.06 0-20.13 0.17-30.19 0.02-1.66 1.06-3.3 1.63-4.95q1.26-0.01 2.52-0.01z"/>
		</g>
	</g>
</svg>