<svg version="1.2" xmlns="http://www.w3.org/2000/svg" viewBox="250 424.628339947089 500 150.743320105821" width="500" height="152">
	<defs>
		<linearGradient id="g1" x2="1" gradientUnits="userSpaceOnUse" gradientTransform="matrix(0,143.48,-109.012,0,398.93,428.411)">
			<stop offset="0" stop-color="#f20001"/>
			<stop offset="1" stop-color="#800000"/>
		</linearGradient>
	</defs>
	<style>
		.s0 { fill: #898380 } 
		.s1 { fill: #0b262c } 
		.s2 { fill: url(#g1) } 
	</style>
	<g id="Layer 1">
		<g id="&lt;Group&gt;">
			<path id="&lt;Compound Path&gt;" class="s0" d="m462.56 516c0-1.94 1.58-3.53 3.43-3.53h23.08c7.58 0 13.65 2.3 17.53 6.18 2.99 3.01 4.76 7.34 4.76 12.2v0.17c0 10.16-6.87 16.08-16.47 17.94l15.32 19.78c0.71 0.8 1.15 1.59 1.15 2.57 0 1.85-1.77 3.44-3.52 3.44-1.42 0-2.48-0.79-3.27-1.86l-17.35-22.61h-17.7v20.94c0 1.94-1.59 3.53-3.53 3.53-1.85 0-3.43-1.59-3.43-3.53zm25.9 28c9.24 0 15.85-4.77 15.85-12.71v-0.18c0-7.6-5.81-12.19-15.77-12.19h-19.02v25.08zm33.98 25.71l25.02-54.86c0.88-1.94 2.2-3.09 4.4-3.09h0.36c2.11 0 3.53 1.15 4.31 3.09l25.02 54.77c0.26 0.62 0.44 1.24 0.44 1.77 0 1.85-1.5 3.36-3.34 3.36-1.68 0-2.83-1.15-3.44-2.56l-6.43-14.23h-33.83l-6.43 14.4c-0.61 1.5-1.76 2.39-3.35 2.39-1.76 0-3.17-1.42-3.17-3.18 0-0.53 0.09-1.15 0.44-1.86zm43.61-18.11l-14.19-31.62-14.18 31.62zm29.24-35.6c0-1.94 1.59-3.54 3.44-3.54h17.96c19.38 0 32.77 13.34 32.77 30.75v0.18c0 17.4-13.39 30.91-32.77 30.91h-17.96c-1.85 0-3.44-1.59-3.44-3.52zm21.4 51.85c15.59 0 25.55-10.6 25.55-24.3v-0.16c0-13.7-9.96-24.48-25.55-24.48h-14.44v48.94zm48.08-52.3v55.66c0 1.94 1.59 3.53 3.44 3.53 1.93 0 3.51-1.59 3.51-3.53v-55.66c0-1.94-1.58-3.53-3.51-3.53-1.85 0-3.44 1.59-3.44 3.53zm22.28 28v-0.16c0-17.06 12.77-31.99 31.53-31.99 18.77 0 31.36 14.76 31.36 31.8v0.19c0 17.04-12.77 31.97-31.53 31.97-18.77 0-31.36-14.76-31.36-31.81zm55.67 0v-0.16c0-14.05-10.22-25.54-24.31-25.54-14.1 0-24.14 11.31-24.14 25.35v0.19c0 14.04 10.22 25.52 24.31 25.52 14.09 0 24.14-11.3 24.14-25.36z"/>
			<path id="&lt;Compound Path&gt;" class="s1" d="m472.98 444.08c5.74 0 10.22-3.77 10.22-9.61 0-5.97-4.48-9.84-10.22-9.84-5.73 0-10.21 3.87-10.21 9.84 0 5.84 4.48 9.61 10.21 9.61zm9.58 53.7v-43.1c0-6.16-7.03-6.78-7.03-6.78h-5.11c0 0-7.03 0.29-7.03 6.78v43.1zm12.81-67.84h18.74v25.38h24.04v-25.38h18.73v67.79h-18.73v-25.75h-24.04v25.75h-18.74zm66.43 41.84v-0.19c0-15.3 10.91-27.41 26.37-27.41 18.05 0 26.35 13.27 26.35 28.67 0 1.16 0 2.51-0.1 3.78h-34.95c1.45 5.71 5.6 8.62 11.3 8.62 4.35 0 7.82-1.65 11.59-5.33l10.14 8.42c-5.02 6.39-12.27 10.65-22.7 10.65-16.4 0-28-10.94-28-27.21zm35.53-4.55c-0.67-5.81-4.05-9.49-9.07-9.49-4.82 0-8.11 3.77-9.07 9.49zm19.43 15.49v-0.19c0-10.85 8.2-16.46 20.46-16.46 4.83 0 9.56 0.97 12.56 2.03v-0.87c0-5.42-3.39-8.52-10.44-8.52-5.49 0-9.75 1.06-14.38 2.9l-3.77-12.98c5.89-2.42 12.17-4.06 21.14-4.06 9.37 0 15.76 2.22 19.9 6.39 3.96 3.87 5.61 9.29 5.61 16.66v30.11h-18.16v-5.42c-3.58 3.97-8.5 6.59-15.35 6.59-9.95 0-17.57-5.71-17.57-16.18zm33.21-3.97v-2.42c-1.83-0.78-4.44-1.35-7.14-1.35-5.32 0-8.41 2.61-8.41 6.49v0.19c0 3.59 2.71 5.71 6.48 5.71 5.3 0 9.07-3.39 9.07-8.62zm23.36-33.41h18.35v10.56c2.99-7.17 7.82-11.81 16.51-11.43v19.37h-1.55c-9.55 0-14.96 5.52-14.96 17.63v16.26h-18.35zm46.15 36.13v-21.32h-6.17v-14.81h6.17v-13.26h18.35v13.26h12.16v14.81h-12.16v17.73c0 3.69 1.65 5.23 5.02 5.23 2.42 0 4.74-0.68 6.96-1.74v14.43c-3.29 1.84-7.63 3-12.75 3-11 0-17.58-4.84-17.58-17.33z"/>
			<g id="&lt;Group&gt;">
				<g id="&lt;Group&gt;">
					<path id="&lt;Compound Path&gt;" class="s2" d="m387.48 428.41c-17.88 0-33.85 9.54-43.05 23.46-9.16-14.08-25.04-23.46-43.07-23.46-28.36 0-51.36 23.06-51.36 51.51 0 16 8.65 31.71 20.07 41.16 0.48 0.56 29.18 27.11 54.47 50.49v-37.77c0-25.78 39.31-25.59 39.31 0v38.09l51.68-48.85c12.67-10.29 23.32-25.06 23.32-43.12 0-28.45-22.99-51.51-51.37-51.51zm-89.2 92.15c-0.7 0.79-1.68 1.2-2.66 1.2-0.84 0-1.68-0.3-2.36-0.9-15.34-13.63-23.12-27.86-23.12-42.3v-0.17c0-12.4 7.55-26.51 17.56-32.81 1.66-1.04 3.86-0.54 4.91 1.14 1.04 1.66 0.54 3.87-1.13 4.91-7.97 5.02-14.22 16.78-14.22 26.76v0.17c0 12.31 6.97 24.74 20.72 36.96 1.47 1.31 1.61 3.56 0.3 5.04zm22.9-13.24c-0.65 1.16-1.86 1.82-3.11 1.82q-0.89 0-1.73-0.45c-10.4-5.85-17.4-17.31-17.45-28.58v-0.11c0.04-10.7 5.93-20.44 15.39-25.43 1.74-0.92 3.89-0.25 4.81 1.49 0.92 1.75 0.25 3.91-1.49 4.82-7.13 3.77-11.57 11.11-11.59 19.18 0.02 8.77 5.57 17.77 13.8 22.39 1.72 0.96 2.33 3.14 1.37 4.87zm23.36-9.13c-8.5 0-15.42-6.92-15.42-15.46 0-8.55 6.92-15.46 15.42-15.46 8.54 0 15.44 6.91 15.44 15.46 0 8.54-6.9 15.46-15.44 15.46zm27.97 10.5q-0.83 0.45-1.74 0.45c-1.24 0-2.45-0.66-3.1-1.82-0.96-1.73-0.35-3.91 1.37-4.87 8.23-4.62 13.78-13.62 13.8-22.39-0.02-8.07-4.46-15.41-11.59-19.18-1.74-0.91-2.41-3.07-1.49-4.82 0.92-1.74 3.06-2.41 4.81-1.49 9.46 4.99 15.35 14.73 15.39 25.43v0.11c-0.05 11.27-7.05 22.73-17.45 28.58zm46.19-30.13c0 14.44-7.77 28.67-23.11 42.3-0.67 0.6-1.52 0.9-2.36 0.9-0.98 0-1.96-0.41-2.66-1.2-1.31-1.48-1.18-3.73 0.3-5.04 13.75-12.22 20.72-24.65 20.72-36.96v-0.17c0-9.98-6.25-21.74-14.22-26.76-1.67-1.04-2.17-3.25-1.12-4.91 1.04-1.68 3.23-2.18 4.9-1.14 10.01 6.3 17.55 20.41 17.55 32.81z"/>
				</g>
			</g>
		</g>
	</g>
</svg>