<svg version="1.2" xmlns="http://www.w3.org/2000/svg" viewBox="181 404.325786040147 638 191.34842791970493" width="638" height="192">
	<style>
		.s0 { fill: #1ed760 } 
	</style>
	<g id="Layer 1">
		<path id="&lt;Compound Path&gt;" class="s0" d="m276.68 404.33c-52.84 0-95.68 42.83-95.68 95.67 0 52.84 42.84 95.67 95.68 95.67 52.84 0 95.67-42.83 95.67-95.67 0-52.84-42.83-95.67-95.67-95.67zm43.87 137.99c-1.71 2.81-5.39 3.7-8.2 1.98-22.47-13.72-50.74-16.83-84.05-9.22-3.21 0.73-6.41-1.28-7.14-4.49-0.73-3.21 1.27-6.41 4.49-7.14 36.44-8.33 67.71-4.74 92.92 10.67 2.82 1.72 3.71 5.39 1.98 8.2zm11.71-26.05c-2.16 3.51-6.75 4.62-10.26 2.46-25.72-15.81-64.92-20.39-95.34-11.15-3.94 1.19-8.11-1.03-9.31-4.97-1.18-3.95 1.04-8.11 4.98-9.31 34.75-10.54 77.94-5.43 107.48 12.72 3.5 2.16 4.61 6.75 2.45 10.25zm1.01-27.13c-30.84-18.31-81.71-20-111.15-11.06-4.73 1.43-9.73-1.23-11.17-5.96-1.43-4.73 1.24-9.73 5.97-11.17 33.8-10.26 89.98-8.27 125.48 12.8 4.26 2.53 5.66 8.02 3.13 12.26-2.51 4.26-8.02 5.66-12.26 3.13zm108.04 3.51c-16.52-3.94-19.46-6.7-19.46-12.51 0-5.49 5.16-9.18 12.85-9.18 7.45 0 14.83 2.8 22.58 8.58 0.23 0.17 0.52 0.24 0.81 0.2q0.45-0.08 0.72-0.45l8.07-11.37c0.33-0.46 0.24-1.11-0.21-1.47-9.22-7.39-19.59-10.99-31.73-10.99-17.83 0-30.3 10.71-30.3 26.02 0 16.42 10.76 22.24 29.33 26.73 15.8 3.64 18.48 6.69 18.48 12.14 0 6.05-5.4 9.81-14.08 9.81-9.64 0-17.51-3.26-26.31-10.87-0.22-0.19-0.51-0.27-0.79-0.26q-0.46 0.04-0.74 0.37l-9.05 10.77c-0.38 0.45-0.33 1.12 0.1 1.5 10.24 9.14 22.83 13.97 36.43 13.97 19.21 0 31.63-10.5 31.63-26.76 0.04-13.72-8.18-21.32-28.3-26.21zm71.82-16.29c-8.33 0-15.16 3.28-20.81 10v-7.57c0-0.59-0.48-1.08-1.07-1.08h-14.8c-0.59 0-1.07 0.49-1.07 1.08v84.09c0 0.6 0.48 1.09 1.07 1.09h14.8c0.59 0 1.07-0.49 1.07-1.09v-26.54c5.65 6.32 12.48 9.42 20.81 9.42 15.48 0 31.15-11.92 31.15-34.7 0.03-22.78-15.65-34.7-31.14-34.7zm13.95 34.7c0 11.6-7.14 19.7-17.38 19.7-10.11 0-17.74-8.47-17.74-19.7 0-11.23 7.63-19.7 17.74-19.7 10.07 0 17.38 8.28 17.38 19.7zm57.36-34.71c-19.93 0-35.55 15.36-35.55 34.96 0 19.39 15.51 34.57 35.31 34.57 20.01 0 35.67-15.3 35.67-34.82 0-19.46-15.56-34.7-35.43-34.7zm0 54.51c-10.6 0-18.6-8.52-18.6-19.81 0-11.35 7.73-19.58 18.36-19.58 10.68 0 18.72 8.52 18.72 19.82 0 11.34-7.77 19.57-18.48 19.57zm78-53.16h-16.28v-16.64c0-0.6-0.48-1.08-1.07-1.08h-14.8c-0.59 0-1.08 0.48-1.08 1.08v16.64h-7.11c-0.59 0-1.07 0.49-1.07 1.08v12.72c0 0.59 0.48 1.08 1.07 1.08h7.11v32.9c0 13.29 6.61 20.03 19.67 20.03 5.3 0 9.7-1.1 13.85-3.45 0.34-0.19 0.55-0.55 0.55-0.94v-12.11c0-0.37-0.2-0.72-0.52-0.91-0.32-0.21-0.72-0.22-1.05-0.05-2.84 1.43-5.6 2.09-8.68 2.09-4.74 0-6.87-2.16-6.87-6.98v-30.57h16.28c0.6 0 1.08-0.49 1.08-1.09v-12.71c0.02-0.6-0.46-1.08-1.07-1.08zm56.72 0.06v-2.04c0-6.01 2.31-8.7 7.47-8.7 3.08 0 5.56 0.62 8.34 1.54 0.34 0.11 0.7 0.06 0.97-0.15 0.29-0.2 0.45-0.53 0.45-0.88v-12.46c0-0.48-0.3-0.9-0.77-1.04-2.92-0.87-6.67-1.77-12.29-1.77-13.66 0-20.89 7.7-20.89 22.24v3.13h-7.1c-0.6 0-1.09 0.49-1.09 1.09v12.77c0 0.6 0.49 1.09 1.09 1.09h7.1v50.73c0 0.61 0.49 1.09 1.09 1.09h14.78c0.61 0 1.09-0.48 1.09-1.09v-50.73h13.81l21.16 50.73c-2.4 5.33-4.77 6.39-7.99 6.39-2.6 0-5.36-0.78-8.15-2.32-0.27-0.14-0.59-0.16-0.86-0.08-0.29 0.1-0.53 0.31-0.64 0.58l-5.02 11c-0.24 0.53-0.03 1.13 0.47 1.41 5.23 2.83 9.95 4.04 15.79 4.04 10.92 0 16.97-5.09 22.28-18.78l25.66-66.31c0.14-0.33 0.09-0.71-0.11-1-0.2-0.3-0.53-0.47-0.88-0.47h-15.4c-0.47 0-0.88 0.29-1.03 0.72l-15.78 45.06-17.28-45.09c-0.16-0.42-0.56-0.69-1-0.69h-25.27zm-32.88-0.07h-14.8c-0.59 0-1.08 0.49-1.08 1.08v64.53c0 0.61 0.49 1.09 1.08 1.09h14.8c0.59 0 1.08-0.48 1.08-1.09v-64.52c0-0.6-0.48-1.09-1.08-1.09zm-7.32-29.38c-5.86 0-10.61 4.74-10.61 10.6 0 5.87 4.75 10.62 10.61 10.62 5.87 0 10.61-4.75 10.61-10.62 0-5.85-4.76-10.6-10.61-10.6zm129.59 50.13c-5.85 0-10.41-4.7-10.41-10.41 0-5.71 4.61-10.46 10.46-10.46 5.85 0 10.41 4.7 10.41 10.4 0 5.71-4.61 10.47-10.46 10.47zm0.05-19.84c-5.33 0-9.37 4.24-9.37 9.43 0 5.19 4.02 9.37 9.32 9.37 5.33 0 9.36-4.23 9.36-9.43 0-5.18-4.01-9.37-9.31-9.37zm2.31 10.44l2.95 4.13h-2.49l-2.65-3.78h-2.28v3.78h-2.08v-10.93h4.87c2.55 0 4.22 1.3 4.22 3.49 0.01 1.79-1.03 2.88-2.53 3.31zm-1.76-4.93h-2.7v3.46h2.7c1.35 0 2.16-0.66 2.16-1.73 0-1.12-0.81-1.73-2.16-1.73z"/>
	</g>
</svg>