<svg version="1.2" xmlns="http://www.w3.org/2000/svg" viewBox="23.999999999999908 433.188504278665 952.0515421569056 134.31074604616464" width="954" height="135">
	<style>
		.s0 { fill: #fefefe } 
		.s1 { fill: #65696d } 
		.s2 { fill: #6a6c6f } 
		.s3 { fill: #6b6d70 } 
		.s4 { fill: #6b6c6f } 
		.s5 { fill: #fab908 } 
		.s6 { fill: #676b6f } 
		.s7 { fill: #ea4335 } 
		.s8 { fill: #35a853 } 
		.s9 { fill: #ea4436 } 
		.s10 { fill: #35a954 } 
		.s11 { fill: #fab909 } 
		.s12 { fill: #0167d9 } 
		.s13 { fill: #4386f4 } 
	</style>
	<g id="Layer 1">
		<g id="&lt;Group&gt;">
			<path id="&lt;Path&gt;" class="s0" d="m40.49 494.47c0.6 4.15 0.65 8.41-0.05 12.56-0.67 4.17-4.69 6.87-8.88 6.53-3.93-0.34-7.07-3.41-7.45-7.49-0.18-1.82-0.02-3.66-0.02-5.48q-0.02 0-0.05 0c0-1.66-0.11-3.3 0.03-4.93 0.33-4.54 3.38-7.59 7.65-7.86 4.26-0.27 8.12 2.43 8.77 6.67z"/>
			<path id="&lt;Path&gt;" class="s0" d="m69.61 528.03h-0.02c0 1.82 0.15 3.68-0.05 5.47-0.42 3.97-3.77 7.09-7.69 7.36-4 0.27-8.26-2.78-8.66-6.89-0.43-3.97-0.41-8.05-0.05-12.04 0.38-4.15 4.44-7.25 8.5-7.09 4.13 0.15 7.56 3.41 7.95 7.69 0.15 1.82 0.02 3.66 0.02 5.5z"/>
			<path id="&lt;Path&gt;" class="s0" d="m69.65 471.76c0.03 3.86 0 7.7 0 11.53 0 4.96 0.05 9.9 0 14.86-0.04 3.68-1.9 6.28-5.25 7.67-4.82 2-10.36-1.17-11.3-6.35-0.18-1.05-0.16-2.18-0.16-3.28v-25.82c0-1.1-0.02-2.2 0.13-3.27 0.63-4.15 4.33-7.32 8.42-7.25 4.08 0.04 7.63 3.3 8.1 7.52 0.15 1.45 0.06 2.93 0.06 4.39z"/>
			<path id="&lt;Path&gt;" class="s0" d="m82.73 522.31q-0.03-21.94 0-43.88c0-1.28-0.06-2.58 0.14-3.84 0.67-4.13 4.46-7.27 8.52-7.09 4.02 0.18 7.85 3.46 7.99 7.61q0.04 1.91 0.04 3.83v44.44c0 2.02 0 4.02-1.18 5.82-1.87 2.87-5.37 4.5-8.46 3.88-3.57-0.72-6.35-3.41-6.91-6.94-0.2-1.25-0.14-2.55-0.14-3.83z"/>
			<path id="&lt;Path&gt;" class="s0" d="m99.4 554.88c0 1.64 0.11 3.3-0.02 4.94-0.36 4.35-3.61 7.47-7.83 7.67-4.13 0.18-8.19-2.74-8.62-6.86-0.4-3.97-0.4-8.06 0.03-12.03 0.47-4.26 4.28-7 8.59-6.82 4.31 0.16 7.45 3.14 7.81 7.63 0.15 1.82 0.02 3.63 0.02 5.47q-0.01 0 0.02 0z"/>
			<path id="&lt;Path&gt;" class="s0" d="m82.98 452.27c-0.61-4.15-0.65-8.44 0.04-12.57 0.7-4.15 4.74-6.84 8.91-6.48 3.93 0.36 7.07 3.45 7.43 7.52 0.15 1.81 0.02 3.65 0.02 5.47q-0.01 0 0.02 0c0 1.66 0.09 3.3-0.02 4.94-0.36 4.53-3.39 7.56-7.67 7.78-4.31 0.25-8.12-2.45-8.73-6.66z"/>
			<path id="&lt;Path&gt;" class="s0" d="m112.75 479.28c-0.61-4.17-0.67-8.44 0.05-12.59 0.74-4.17 4.86-6.95 8.92-6.55 4 0.41 7.03 3.41 7.41 7.56 0.18 1.8 0.02 3.66 0.02 5.48q0.02 0 0.05 0v4.93c0 4.15-3.68 7.61-7.7 7.9-4.11 0.29-8.14-2.56-8.75-6.73z"/>
			<path id="&lt;Path&gt;" class="s0" d="m129.11 501.8c0.13 1.1 0.13 2.2 0.13 3.3v25.26c0 0.9-0.04 1.82-0.04 2.74-0.05 4.67-4.38 7.94-8.26 7.92-4.11-0.02-7.67-3.05-8.32-7.29-0.16-1.08-0.12-2.2-0.12-3.3q-0.03-6.3 0-12.63 0.01-6.87-0.02-13.71c0-1.68 0.18-3.27 0.92-4.8 1.73-3.48 5.18-5.23 9.11-4.58 3.52 0.59 6.15 3.37 6.6 7.09z"/>
			<path id="&lt;Path&gt;" class="s0" d="m158.11 494.15c0.5 4.35 0.81 8.75-0.11 13.06-0.92 4.28-4.73 6.75-8.97 6.3-3.88-0.4-6.89-3.52-7.25-7.67-0.13-1.82-0.02-3.66-0.02-5.47 0-1.66-0.11-3.3 0.02-4.94 0.36-4.15 2.94-6.93 6.73-7.47 4.31-0.58 7.63 1.28 9.22 5.16 0.14 0.34 0.36 0.67 0.38 1.03z"/>
			<path id="&lt;Path&gt;" class="s0" d="m276.03 491.89c1.73 22.72-11.96 37.44-29.77 40.51-16.8 2.9-31.01-2.06-41.57-15.45-15.89-20.17-9-48.01 12.36-60.2 14.74-8.41 32.96-7.13 45.5 2.94 0.98 0.81 1.86 1.75 2.78 2.61-0.74 2.17-2.51 3.29-3.9 4.71-3.53 3.54-3.15 3.52-7.12 0.58-10.29-7.65-28.31-7.4-38.83 5.05-10.07 11.91-9.27 28.92 0.63 39.8 8.28 9.11 21.33 12.11 33.29 7.38 7.83-3.1 12.92-8.82 14.69-17.23 0.45-2.25-0.08-2.94-2.53-2.96-6.06-0.07-12.11-0.03-18.17-0.05-6.06 0-5.59 0.34-5.61-5.67-0.02-5.79-0.27-5.48 5.29-5.48 9.72 0 19.45-0.02 29.17 0.02 2.89 0 3.57 0.57 3.79 3.44z"/>
			<path id="&lt;Compound Path&gt;" class="s0" d="m305.98 480.96c-17.39 0.23-26.41 13.93-26.25 26.63 0.18 15.77 12.92 26.2 26.74 26.14 14.29-0.07 26.63-11.67 26.19-26.63 0.33-12.93-9.85-26.34-26.68-26.14zm9.6 38.84c-4.06 3.41-8.75 4.5-13.88 2.69-5.48-1.93-8.75-5.86-9.94-11.49-0.27-1.26-0.25-2.56-0.36-3.84-0.02-3 0.65-5.81 2.15-8.43 4.85-8.46 16.15-9.96 23.02-3.03 6.51 6.57 6.1 18.17-0.99 24.1z"/>
			<path id="&lt;Compound Path&gt;" class="s0" d="m364.13 480.98c-17.63-0.02-26.99 14.14-26.38 26.34-0.59 14.7 11.89 26.43 26.31 26.43 11.65 0 26.41-8.26 26.52-26.36 0.09-14.65-10.68-26.38-26.45-26.41zm7.07 40.34c-7.52 4.38-17.12 1.06-20.6-7.04q-2.69-6.31-0.45-12.81c2.43-6.91 8.42-10.73 15.75-10.01 6.51 0.65 11.98 6.15 12.88 12.99 0.11 0.9 0.11 1.82 0.16 2.76 0 6.1-2.38 10.99-7.74 14.11z"/>
			<path id="&lt;Compound Path&gt;" class="s0" d="m445.97 483.29c-0.06-0.78-0.51-1.41-1.34-1.43-2.76-0.05-5.5-0.07-8.26-0.02-0.83 0.02-1.14 0.71-1.28 1.5-0.11 0.63 0.14 1.48-0.96 1.79-0.65-0.44-1.39-0.94-2.13-1.45-5.52-3.91-11.65-4.29-17.88-2.47-9.4 2.76-17.84 11.13-18.65 24.09-0.69 11.33 6.17 21.88 16.72 25.98 6.93 2.72 13.61 2.49 19.92-1.86 0.72-0.49 1.3-1.35 2.35-1.1 0.79 4.69 0.56 7.38-0.92 10.59q-2.36 4.97-7.65 6.64c-6.77 2.18-12.83-0.65-16.15-5.11-2.47-3.3-2.56-3.24-6.12-1.78-1.37 0.54-2.74 1.06-4.09 1.66-1.5 0.7-1.7 1.48-0.83 3.05 5.77 10.28 16.36 15.53 29.59 12.5 8.39-1.93 13.73-7.31 16.36-15.48 1.14-3.54 1.44-7.18 1.44-10.86 0-14.31 0.02-28.62 0-42.94q0.01-1.65-0.12-3.3zm-12.63 32.69c-4.01 6.49-12.07 8.53-18.62 4.6-5.56-3.34-7.78-8.48-7.49-14.81 0.27-6.12 2.91-10.9 8.46-13.73 6.37-3.27 13.77-1.03 17.61 5.19 1.57 2.51 2.55 6.1 2.58 9.37 0 3.37-0.74 6.51-2.54 9.38z"/>
			<path id="&lt;Path&gt;" class="s0" d="m465.67 461.76c0.05 10.45 0 20.88 0 31.32v32.44q0.01 2.18-0.04 4.39c-0.03 1.26-0.63 2.09-1.98 2.11q-3.83 0.04-7.69-0.02c-1.04-0.02-1.71-0.65-1.82-1.68-0.14-1.1-0.16-2.2-0.16-3.3q-0.03-33.78 0-67.6-0.01-1.65 0.11-3.27c0.09-1.01 0.68-1.68 1.73-1.8 0.72-0.09 1.46-0.09 2.2-0.06 8.77 0.11 7.61-1.19 7.65 7.47z"/>
			<path id="&lt;Compound Path&gt;" class="s0" d="m513.23 517.89c-2.35-1.62-2.51-1.64-4.57 0.49-2.25 2.31-4.81 3.95-7.95 4.58-5.45 1.12-10.16-0.23-13.91-4.42-2.06-2.29-1.88-3.21 0.83-4.42 1.15-0.54 2.36-1.01 3.53-1.5q11.17-4.57 22.32-9.18c7.25-3.03 7.27-3.05 3.3-9.92-0.92-1.59-2-3.09-3.17-4.48-8.39-9.85-21.44-10.17-30.8-4.13-6.21 3.99-9.71 9.85-11.01 17-3.28 17.71 9.62 32.09 25.66 31.71 5.81 0.26 11.4-1.42 16.04-5.32 7.88-6.6 6.48-5.83-0.27-10.41zm-30.2-13.93c0.66-8.44 9.09-14.52 17.21-12.3 2.52 0.68 4.69 1.95 5.7 4.58-0.29 0.34-0.47 0.72-0.76 0.83q-10.07 4.28-20.17 8.46c-1.3 0.54-2.09-0.16-1.98-1.57z"/>
			<path id="&lt;Compound Path&gt;" class="s0" d="m600.68 463.91c-4.8-4.96-10.65-7.69-17.59-7.76-8.43-0.11-16.87-0.07-25.3-0.07q-0.54 0-1.1 0.02c-1.8 0.14-2.36 0.59-2.45 2.25-0.09 1.46-0.04 2.94-0.04 4.39-0.02 10.46 0 20.89 0 31.35q0 15.94-0.02 31.87c0 6.2-0.16 5.97 6.08 5.93 0.35 0 0.74 0.02 1.09 0 2.85-0.14 3.19-0.45 3.28-3.19 0.04-1.1 0.02-2.2 0.02-3.3 0-5.85-0.04-11.71 0-17.58 0.05-7.48-0.81-6.53 6.89-6.62 3.48-0.03 6.95 0.09 10.43-0.05 7.02-0.29 13.26-2.56 18.35-7.56 8.28-8.12 8.46-21.36 0.36-29.68zm-16.94 27.66c-2.91 0.23-5.87 0.05-8.79 0.05q0-0.04 0-0.05c-2.94 0-5.86 0.02-8.79-0.02-0.83 0-1.28-0.56-1.4-1.39-0.02-0.18-0.09-0.36-0.09-0.54 0-7.34-0.02-14.67 0.03-21.99 0-1.86 0.47-2.33 2.24-2.35 5.32-0.05 10.63-0.2 15.95 0.04 6.4 0.32 11.91 5.16 12.86 10.86 1.28 7.65-4.22 14.76-12.01 15.39z"/>
			<path id="&lt;Compound Path&gt;" class="s0" d="m662.87 499.99c-2.06-10.44-8.46-17.14-18.48-20.49-4.63-1.55-9.4-1.57-14.12-0.92-6.17 0.86-11.44 3.61-15.75 8.19-5.78 6.15-7.8 13.48-7.11 21.72 0.99 11.31 6.89 19.02 17.34 23.22 3.44 1.37 7.05 1.93 9.83 1.75 8.37 0 15.01-2.18 20.44-7.38 7.47-7.2 9.83-16.09 7.85-26.09zm-9.85 5.99c0.03 9.08-4.84 15.72-13.1 17.99-9.31 2.56-19.02-2.69-21.54-12.03-2.02-7.49-1.16-14.58 4.98-20.14 5.57-5.07 12.07-6.08 18.87-3.26 6.6 2.76 10.28 7.99 10.79 15.26 0.05 0.72 0 1.46 0 2.18z"/>
			<path id="&lt;Compound Path&gt;" class="s0" d="m716.2 456.1c-2.72 0-2.96 0.29-2.96 3.35 0 7.89 0.09 15.77 0.09 23.64 0 0.81 0.49 1.82-0.54 2.4-1.3-0.04-1.86-1.1-2.65-1.77-8.19-7.09-22.28-7.52-31.47 0.09-12.23 10.1-12.48 26.59-6.31 36.84 8.46 14.09 26.16 17.03 38.77 6.41 0.54-0.44 0.94-1.18 1.84-0.96 0.11 0.11 0.31 0.2 0.31 0.31 0.11 0.74 0.27 1.46 0.23 2.18-0.12 2.89 0.8 3.25 3.16 3.28 1.64 0.04 3.3 0 4.94-0.09 1.07-0.05 1.66-0.72 1.7-1.75 0.07-1.46 0.07-2.92 0.07-4.4 0-20.89 0.02-41.78-0.02-62.66 0-7.83 0.94-6.84-7.16-6.87zm-2.81 50.1c0.03 8.97-4.59 15.44-12.56 17.72-9.85 2.83-20.12-3.65-21.63-13.77-0.36-2.33-0.33-4.76-0.18-7.11 0.61-10.12 9.81-16.11 17.1-15.93 9.11 0.24 16.33 6.59 17.25 15.79 0.11 1.1 0.02 2.2 0.02 3.3z"/>
			<path id="&lt;Path&gt;" class="s0" d="m782.63 519.95c-0.81 1.44-1.62 2.9-2.65 4.15-3.86 4.71-8.79 7.74-14.81 8.82-12.27 2.18-23.22-1.77-29.54-11.31-6.06-9.15-6.55-19.07-1.62-28.76 4.91-9.62 13.28-14.36 24.14-14.54 3.3-0.06 6.57 0.07 9.78 1.13q9.63 3.15 14.32 12.09c0.49 0.92 0.29 1.77-0.79 2.22-1.01 0.4-2.02 0.85-3.05 1.21-1.37 0.49-2.65 1.55-4.13 1.28-1.64-0.29-1.9-2.11-2.76-3.23-5.11-6.73-15.66-7.43-21.89-3.28-11.31 7.45-11.31 24.75-0.03 32.22 6.98 4.62 17.79 2.89 22.42-3.37 0.74-1.03 1.5-2.06 2.6-3.59 2.67 1.13 5.05 2.07 7.38 3.12 0.74 0.32 1.05 1.12 0.63 1.84z"/>
			<path id="&lt;Compound Path&gt;" class="s0" d="m835.89 498.77c-0.05-8.72-5.16-15.88-14.65-19.13-4.96-1.69-10.12-1.75-15.24-0.99-5.42 0.81-9.98 3.5-13.61 7.63-3.21 3.61-2.96 4.48 1.68 6.41q1.28 0.51 2.53 1.01c1.35 0.56 2.32 0.41 3.28-0.89 3.66-5.01 8.88-6.15 14.65-5.52 5.97 0.63 10.57 4.87 11.42 10.23 0.36 2.4-0.34 3.16-2.58 2.35-5.12-1.84-10.41-1.99-15.73-1.66-4.64 0.32-8.97 1.75-12.85 4.33-10.19 6.82-9.94 20.93 0.4 27.55 7.58 4.89 21.16 4.8 28.04-2.49 0.63-0.65 1.35-1.21 2.29-2.04 0.47 0.94 0.79 1.26 0.77 1.55-0.3 5.25 1.12 4.76 5.02 4.78 0.54 0 1.1 0.02 1.64 0 2.47-0.14 2.98-0.54 2.98-2.9q0.05-15.11-0.04-30.22zm-9.96 12.95c-0.14 0.9-0.3 1.82-0.65 2.65-3.21 7.4-13.24 12.92-22.06 8.86-5.72-2.63-6.8-8.44-2.44-12.99 1.41-1.48 3.12-2.58 5.07-3.14 2.44-0.74 4.96-1.3 6.97-1.12 4.29 0.04 7.88 0.58 11.24 2.19 1.66 0.81 2.11 1.71 1.87 3.55z"/>
			<path id="&lt;Path&gt;" class="s0" d="m882.15 528.43c-4.65 3.7-10.05 5.12-15.37 5.01-10.57 0.13-18.26-3.95-23.4-12.61-0.9-1.51-0.63-2.2 1.03-2.94 1.33-0.61 2.67-1.19 4.06-1.68 2.56-0.95 2.74-0.99 4.42 1.57 4.09 6.19 10.01 7.58 16.83 6.73 1.82-0.25 3.52-1.01 4.98-2.2 3.48-2.83 3.34-7.2-0.31-9.74-1.69-1.17-3.64-1.75-5.61-2.22-3.39-0.78-6.8-1.5-10.17-2.31-3.43-0.83-6.5-2.45-9.4-4.44-7.04-4.89-6.32-14.94-0.69-19.57 2.87-2.35 6.1-4.01 9.73-4.89 5.86-1.41 11.65-1.28 17.3 0.79 4.42 1.61 8.08 4.31 10.34 8.59 0.5 0.92 0.48 1.8-0.6 2.24-1.84 0.81-3.73 1.51-5.59 2.29-0.96 0.41-1.75 0.36-2.38-0.56-3.61-5.27-8.95-5.85-14.67-5.38-1.86 0.16-3.56 0.78-5.14 1.79-1.79 1.12-3.09 2.69-2.89 4.94 0.18 2.22 1.59 3.66 3.57 4.51q1.51 0.65 3.12 1.03c3.2 0.79 6.41 1.48 9.62 2.22 3.05 0.72 6.01 1.57 8.82 3.01 9.13 4.64 10.9 17.05 2.4 23.82z"/>
			<path id="&lt;Path&gt;" class="s0" d="m926.12 529.94c0.25 0.83-0.11 1.41-0.85 1.75-0.5 0.22-1.03 0.4-1.55 0.49-3.3 0.45-6.6 0.52-9.87 0.07-6.73-0.95-11.17-5.23-12.52-12.03-0.36-1.79-0.52-3.63-0.56-5.45-0.07-3.48-0.02-6.95-0.02-10.43q0 0-0.03 0c0-4.22 0.05-8.44-0.02-12.66-0.02-2.28-0.38-2.6-2.47-2.73-0.92-0.05-1.84-0.02-2.76-0.05-4.03-0.13-4.12-0.24-4.12-4.51 0-0.92 0-1.84 0.09-2.73 0.13-1.01 0.71-1.71 1.77-1.75 1.82-0.12 3.66-0.12 5.49-0.18 1.33-0.05 1.98-0.77 2-2.07 0.02-3.65 0-7.33 0.09-10.99 0.05-2.15 0.43-2.6 2.6-2.6 8.84 0.04 7.68-1.26 7.9 7.29 0.05 2.67-1.3 5.99 0.9 7.85 1.86 1.57 4.93 0.49 7.47 0.56 4.96 0.14 4.96 0.09 4.93 4.85q0.01 0.55-0.02 1.1c-0.09 2.71-0.42 3.07-3.25 3.16-2.74 0.09-5.5 0.07-8.23 0.16-1.04 0.02-1.66 0.67-1.73 1.72q-0.11 1.36-0.11 2.74v20.89c0 0.74 0.04 1.46 0.04 2.2 0.05 4.71 3.37 7.74 7.29 6.91 4.42-0.9 5.83 1.59 6.98 4.89q0.31 0.77 0.56 1.55z"/>
			<path id="&lt;Path&gt;" class="s0" d="m969.37 529.29c-2.58 1.83-5.47 3.02-8.54 3.56-9.96 1.71-19.03 0.16-26.12-7.78-1.07-1.24-2.02-2.63-2.87-4.02-1.03-1.73-0.72-2.47 1.23-3.34 1.01-0.43 2.07-0.76 3.08-1.21 3.39-1.53 3.72-0.83 5.32 1.59 4.08 6.15 10.16 7.38 16.96 6.3 1.39-0.22 2.8-0.92 4.01-1.7 4.2-2.74 4.17-7.74-0.09-10.32-1.55-0.94-3.34-1.48-5.11-1.95-3.37-0.88-6.78-1.55-10.17-2.34-3.43-0.8-6.52-2.4-9.42-4.39-7.22-4.96-6.5-14.81-0.94-19.52 2-1.66 4.13-3.05 6.55-3.97 6.78-2.58 13.64-2.69 20.46-0.32 5 1.75 8.95 4.87 11.11 9.85-1.42 1.66-3.35 1.86-4.96 2.65-2.16 1.03-3.97 1.39-5.48-1.3-1.21-2.15-3.61-3.1-5.96-3.64-2.9-0.67-5.86-0.65-8.75-0.11-1.82 0.32-3.5 1.08-4.89 2.36-2.52 2.33-2.29 6.21 0.58 8.03 1.21 0.78 2.65 1.26 4.06 1.61 3.19 0.84 6.42 1.49 9.62 2.25 2.85 0.65 5.72 1.34 8.37 2.65 10.64 5.27 11.62 18.17 1.95 25.06z"/>
			<path id="&lt;Path&gt;" class="s1" d="m246.26 532.4c-16.8 2.9-31.01-2.06-41.57-15.45-15.89-20.17-9-48.01 12.36-60.2 14.74-8.41 32.96-7.13 45.5 2.94 0.98 0.81 1.86 1.75 2.78 2.61-0.74 2.17-2.51 3.29-3.9 4.71-3.53 3.54-3.15 3.52-7.12 0.58-10.29-7.65-28.31-7.4-38.83 5.05-10.07 11.91-9.27 28.92 0.63 39.8 8.28 9.11 21.33 12.11 33.29 7.38 7.83-3.1 12.92-8.82 14.69-17.23 0.45-2.25-0.08-2.94-2.53-2.96-6.06-0.07-12.11-0.03-18.17-0.05-6.06 0-5.59 0.34-5.61-5.67-0.02-5.79-0.27-5.48 5.29-5.48 9.72 0 19.45-0.02 29.17 0.02 2.89 0 3.57 0.57 3.79 3.44 1.73 22.72-11.96 37.44-29.77 40.51z"/>
			<path id="&lt;Compound Path&gt;" class="s1" d="m445.97 483.29c-0.06-0.78-0.51-1.41-1.34-1.43-2.76-0.05-5.5-0.07-8.26-0.02-0.83 0.02-1.14 0.71-1.28 1.5-0.11 0.63 0.14 1.48-0.96 1.79-0.65-0.44-1.39-0.94-2.13-1.45-5.52-3.91-11.65-4.29-17.88-2.47-9.4 2.76-17.84 11.13-18.65 24.09-0.69 11.33 6.17 21.88 16.72 25.98 6.93 2.72 13.61 2.49 19.92-1.86 0.72-0.49 1.3-1.35 2.35-1.1 0.79 4.69 0.56 7.38-0.92 10.59q-2.36 4.97-7.65 6.64c-6.77 2.18-12.83-0.65-16.15-5.11-2.47-3.3-2.56-3.24-6.12-1.78-1.37 0.54-2.74 1.06-4.09 1.66-1.5 0.7-1.7 1.48-0.83 3.05 5.77 10.28 16.36 15.53 29.59 12.5 8.39-1.93 13.73-7.31 16.36-15.48 1.14-3.54 1.44-7.18 1.44-10.86 0-14.31 0.02-28.62 0-42.94q0.01-1.65-0.12-3.3zm-12.63 32.69c-4.01 6.49-12.07 8.53-18.62 4.6-5.56-3.34-7.78-8.48-7.49-14.81 0.27-6.12 2.91-10.9 8.46-13.73 6.37-3.27 13.77-1.03 17.61 5.19 1.57 2.51 2.55 6.1 2.58 9.37 0 3.37-0.74 6.51-2.54 9.38z"/>
			<path id="&lt;Compound Path&gt;" class="s2" d="m716.2 456.1c-2.72 0-2.96 0.29-2.96 3.35 0 7.89 0.09 15.77 0.09 23.64 0 0.81 0.49 1.82-0.54 2.4-1.3-0.04-1.86-1.1-2.65-1.77-8.19-7.09-22.28-7.52-31.47 0.09-12.23 10.1-12.48 26.59-6.31 36.84 8.46 14.09 26.16 17.03 38.77 6.41 0.54-0.44 0.94-1.18 1.84-0.96 0.11 0.11 0.31 0.2 0.31 0.31 0.11 0.74 0.27 1.46 0.23 2.18-0.12 2.89 0.8 3.25 3.16 3.28 1.64 0.04 3.3 0 4.94-0.09 1.07-0.05 1.66-0.72 1.7-1.75 0.07-1.46 0.07-2.92 0.07-4.4 0-20.89 0.02-41.78-0.02-62.66 0-7.83 0.94-6.84-7.16-6.87zm-2.81 50.1c0.03 8.97-4.59 15.44-12.56 17.72-9.85 2.83-20.12-3.65-21.63-13.77-0.36-2.33-0.33-4.76-0.18-7.11 0.61-10.12 9.81-16.11 17.1-15.93 9.11 0.24 16.33 6.59 17.25 15.79 0.11 1.1 0.02 2.2 0.02 3.3z"/>
			<path id="&lt;Compound Path&gt;" class="s3" d="m600.68 463.91c-4.8-4.96-10.65-7.69-17.59-7.76-8.43-0.11-16.87-0.07-25.3-0.07q-0.54 0-1.1 0.02c-1.8 0.14-2.36 0.59-2.45 2.25-0.09 1.46-0.04 2.94-0.04 4.39-0.02 10.46 0 20.89 0 31.35q0 15.94-0.02 31.87c0 6.2-0.16 5.97 6.08 5.93 0.35 0 0.74 0.02 1.09 0 2.85-0.14 3.19-0.45 3.28-3.19 0.04-1.1 0.02-2.2 0.02-3.3 0-5.85-0.04-11.71 0-17.58 0.05-7.48-0.81-6.53 6.89-6.62 3.48-0.03 6.95 0.09 10.43-0.05 7.02-0.29 13.26-2.56 18.35-7.56 8.28-8.12 8.46-21.36 0.36-29.68zm-16.94 27.66c-2.91 0.23-5.87 0.05-8.79 0.05q0-0.04 0-0.05c-2.94 0-5.86 0.02-8.79-0.02-0.83 0-1.28-0.56-1.4-1.39-0.02-0.18-0.09-0.36-0.09-0.54 0-7.34-0.02-14.67 0.03-21.99 0-1.86 0.47-2.33 2.24-2.35 5.32-0.05 10.63-0.2 15.95 0.04 6.4 0.32 11.91 5.16 12.86 10.86 1.28 7.65-4.22 14.76-12.01 15.39z"/>
			<path id="&lt;Compound Path&gt;" class="s2" d="m835.89 498.77c-0.05-8.72-5.16-15.88-14.65-19.13-4.96-1.69-10.12-1.75-15.24-0.99-5.42 0.81-9.98 3.5-13.61 7.63-3.21 3.61-2.96 4.48 1.68 6.41q1.28 0.51 2.53 1.01c1.35 0.56 2.32 0.41 3.28-0.89 3.66-5.01 8.88-6.15 14.65-5.52 5.97 0.63 10.57 4.87 11.42 10.23 0.36 2.4-0.34 3.16-2.58 2.35-5.12-1.84-10.41-1.99-15.73-1.66-4.64 0.32-8.97 1.75-12.85 4.33-10.19 6.82-9.94 20.93 0.4 27.55 7.58 4.89 21.16 4.8 28.04-2.49 0.63-0.65 1.35-1.21 2.29-2.04 0.47 0.94 0.79 1.26 0.77 1.55-0.3 5.25 1.12 4.76 5.02 4.78 0.54 0 1.1 0.02 1.64 0 2.47-0.14 2.98-0.54 2.98-2.9q0.05-15.11-0.04-30.22zm-9.96 12.95c-0.14 0.9-0.3 1.82-0.65 2.65-3.21 7.4-13.24 12.92-22.06 8.86-5.72-2.63-6.8-8.44-2.44-12.99 1.41-1.48 3.12-2.58 5.07-3.14 2.44-0.74 4.96-1.3 6.97-1.12 4.29 0.04 7.88 0.58 11.24 2.19 1.66 0.81 2.11 1.71 1.87 3.55z"/>
			<path id="&lt;Compound Path&gt;" class="s1" d="m305.98 480.96c-17.39 0.23-26.41 13.93-26.25 26.63 0.18 15.77 12.92 26.2 26.74 26.14 14.29-0.07 26.63-11.67 26.19-26.63 0.33-12.93-9.85-26.34-26.68-26.14zm9.6 38.84c-4.06 3.41-8.75 4.5-13.88 2.69-5.48-1.93-8.75-5.86-9.94-11.49-0.27-1.26-0.25-2.56-0.36-3.84-0.02-3 0.65-5.81 2.15-8.43 4.85-8.46 16.15-9.96 23.02-3.03 6.51 6.57 6.1 18.17-0.99 24.1z"/>
			<path id="&lt;Compound Path&gt;" class="s1" d="m364.13 480.98c-17.63-0.02-26.99 14.14-26.38 26.34-0.59 14.7 11.89 26.43 26.31 26.43 11.65 0 26.41-8.26 26.52-26.36 0.09-14.65-10.68-26.38-26.45-26.41zm7.07 40.34c-7.52 4.38-17.12 1.06-20.6-7.04q-2.69-6.31-0.45-12.81c2.43-6.91 8.42-10.73 15.75-10.01 6.51 0.65 11.98 6.15 12.88 12.99 0.11 0.9 0.11 1.82 0.16 2.76 0 6.1-2.38 10.99-7.74 14.11z"/>
			<path id="&lt;Compound Path&gt;" class="s1" d="m513.23 517.89c-2.35-1.62-2.51-1.64-4.57 0.49-2.25 2.31-4.81 3.95-7.95 4.58-5.45 1.12-10.16-0.23-13.91-4.42-2.06-2.29-1.88-3.21 0.83-4.42 1.15-0.54 2.36-1.01 3.53-1.5q11.17-4.57 22.32-9.18c7.25-3.03 7.27-3.05 3.3-9.92-0.92-1.59-2-3.09-3.17-4.48-8.39-9.85-21.44-10.17-30.8-4.13-6.21 3.99-9.71 9.85-11.01 17-3.28 17.71 9.62 32.09 25.66 31.71 5.81 0.26 11.4-1.42 16.04-5.32 7.88-6.6 6.48-5.83-0.27-10.41zm-30.2-13.93c0.66-8.44 9.09-14.52 17.21-12.3 2.52 0.68 4.69 1.95 5.7 4.58-0.29 0.34-0.47 0.72-0.76 0.83q-10.07 4.28-20.17 8.46c-1.3 0.54-2.09-0.16-1.98-1.57z"/>
			<path id="&lt;Compound Path&gt;" class="s4" d="m662.87 499.99c-2.06-10.44-8.46-17.14-18.48-20.49-4.63-1.55-9.4-1.57-14.12-0.92-6.17 0.86-11.44 3.61-15.75 8.19-5.78 6.15-7.8 13.48-7.11 21.72 0.99 11.31 6.89 19.02 17.34 23.22 3.44 1.37 7.05 1.93 9.83 1.75 8.37 0 15.01-2.18 20.44-7.38 7.47-7.2 9.83-16.09 7.85-26.09zm-9.85 5.99c0.03 9.08-4.84 15.72-13.1 17.99-9.31 2.56-19.02-2.69-21.54-12.03-2.02-7.49-1.16-14.58 4.98-20.14 5.57-5.07 12.07-6.08 18.87-3.26 6.6 2.76 10.28 7.99 10.79 15.26 0.05 0.72 0 1.46 0 2.18z"/>
			<path id="&lt;Path&gt;" class="s4" d="m969.37 529.29c-2.58 1.83-5.47 3.02-8.54 3.56-9.96 1.71-19.03 0.16-26.12-7.78-1.07-1.24-2.02-2.63-2.87-4.02-1.03-1.73-0.72-2.47 1.23-3.34 1.01-0.43 2.07-0.76 3.08-1.21 3.39-1.53 3.72-0.83 5.32 1.59 4.08 6.15 10.16 7.38 16.96 6.3 1.39-0.22 2.8-0.92 4.01-1.7 4.2-2.74 4.17-7.74-0.09-10.32-1.55-0.94-3.34-1.48-5.11-1.95-3.37-0.88-6.78-1.55-10.17-2.34-3.43-0.8-6.52-2.4-9.42-4.39-7.22-4.96-6.5-14.81-0.94-19.52 2-1.66 4.13-3.05 6.55-3.97 6.78-2.58 13.64-2.69 20.46-0.32 5 1.75 8.95 4.87 11.11 9.85-1.42 1.66-3.35 1.86-4.96 2.65-2.16 1.03-3.97 1.39-5.48-1.3-1.21-2.15-3.61-3.1-5.96-3.64-2.9-0.67-5.86-0.65-8.75-0.11-1.82 0.32-3.5 1.08-4.89 2.36-2.52 2.33-2.29 6.21 0.58 8.03 1.21 0.78 2.65 1.26 4.06 1.61 3.19 0.84 6.42 1.49 9.62 2.25 2.85 0.65 5.72 1.34 8.37 2.65 10.64 5.27 11.62 18.17 1.95 25.06z"/>
			<path id="&lt;Path&gt;" class="s4" d="m882.15 528.43c-4.65 3.7-10.05 5.12-15.37 5.01-10.57 0.13-18.26-3.95-23.4-12.61-0.9-1.51-0.63-2.2 1.03-2.94 1.33-0.61 2.67-1.19 4.06-1.68 2.56-0.95 2.74-0.99 4.42 1.57 4.09 6.19 10.01 7.58 16.83 6.73 1.82-0.25 3.52-1.01 4.98-2.2 3.48-2.83 3.34-7.2-0.31-9.74-1.69-1.17-3.64-1.75-5.61-2.22-3.39-0.78-6.8-1.5-10.17-2.31-3.43-0.83-6.5-2.45-9.4-4.44-7.04-4.89-6.32-14.94-0.69-19.57 2.87-2.35 6.1-4.01 9.73-4.89 5.86-1.41 11.65-1.28 17.3 0.79 4.42 1.61 8.08 4.31 10.34 8.59 0.5 0.92 0.48 1.8-0.6 2.24-1.84 0.81-3.73 1.51-5.59 2.29-0.96 0.41-1.75 0.36-2.38-0.56-3.61-5.27-8.95-5.85-14.67-5.38-1.86 0.16-3.56 0.78-5.14 1.79-1.79 1.12-3.09 2.69-2.89 4.94 0.18 2.22 1.59 3.66 3.57 4.51q1.51 0.65 3.12 1.03c3.2 0.79 6.41 1.48 9.62 2.22 3.05 0.72 6.01 1.57 8.82 3.01 9.13 4.64 10.9 17.05 2.4 23.82z"/>
			<path id="&lt;Path&gt;" class="s4" d="m782.63 519.95c-0.81 1.44-1.62 2.9-2.65 4.15-3.86 4.71-8.79 7.74-14.81 8.82-12.27 2.18-23.22-1.77-29.54-11.31-6.06-9.15-6.55-19.07-1.62-28.76 4.91-9.62 13.28-14.36 24.14-14.54 3.3-0.06 6.57 0.07 9.78 1.13q9.63 3.15 14.32 12.09c0.49 0.92 0.29 1.77-0.79 2.22-1.01 0.4-2.02 0.85-3.05 1.21-1.37 0.49-2.65 1.55-4.13 1.28-1.64-0.29-1.9-2.11-2.76-3.23-5.11-6.73-15.66-7.43-21.89-3.28-11.31 7.45-11.31 24.75-0.03 32.22 6.98 4.62 17.79 2.89 22.42-3.37 0.74-1.03 1.5-2.06 2.6-3.59 2.67 1.13 5.05 2.07 7.38 3.12 0.74 0.32 1.05 1.12 0.63 1.84z"/>
			<path id="&lt;Path&gt;" class="s3" d="m925.27 531.69c-0.5 0.22-1.03 0.4-1.55 0.49-3.3 0.45-6.6 0.52-9.87 0.07-6.73-0.95-11.17-5.23-12.52-12.03-0.36-1.79-0.52-3.63-0.56-5.45-0.07-3.48-0.02-6.95-0.02-10.43q0 0-0.03 0c0-4.22 0.05-8.44-0.02-12.66-0.02-2.28-0.38-2.6-2.47-2.73-0.92-0.05-1.84-0.02-2.76-0.05-4.03-0.13-4.12-0.24-4.12-4.51 0-0.92 0-1.84 0.09-2.73 0.13-1.01 0.71-1.71 1.77-1.75 1.82-0.12 3.66-0.12 5.49-0.18 1.33-0.05 1.98-0.77 2-2.07 0.02-3.65 0-7.33 0.09-10.99 0.05-2.15 0.43-2.6 2.6-2.6 8.84 0.04 7.68-1.26 7.9 7.29 0.05 2.67-1.3 5.99 0.9 7.85 1.86 1.57 4.93 0.49 7.47 0.56 4.96 0.14 4.96 0.09 4.93 4.85q0.01 0.55-0.02 1.1c-0.09 2.71-0.42 3.07-3.25 3.16-2.74 0.09-5.5 0.07-8.23 0.16-1.04 0.02-1.66 0.67-1.73 1.72q-0.11 1.36-0.11 2.74v20.89c0 0.74 0.04 1.46 0.04 2.2 0.05 4.71 3.37 7.74 7.29 6.91 4.42-0.9 5.83 1.59 6.98 4.89q0.31 0.77 0.56 1.55c0.25 0.83-0.11 1.41-0.85 1.75z"/>
			<path id="&lt;Path&gt;" class="s5" d="m99.42 478.94v44.44c0 2.02 0 4.02-1.18 5.82-1.87 2.87-5.37 4.5-8.46 3.88-3.57-0.72-6.35-3.41-6.91-6.94-0.2-1.25-0.14-2.55-0.14-3.83q-0.03-21.94 0-43.88c0-1.28-0.06-2.58 0.14-3.84 0.67-4.13 4.46-7.27 8.52-7.09 4.02 0.18 7.85 3.46 7.99 7.61q0.04 1.91 0.04 3.83z"/>
			<path id="&lt;Path&gt;" class="s6" d="m465.67 461.76c0.05 10.45 0 20.88 0 31.32v32.44q0.01 2.18-0.04 4.39c-0.03 1.26-0.63 2.09-1.98 2.11q-3.83 0.04-7.69-0.02c-1.04-0.02-1.71-0.65-1.82-1.68-0.14-1.1-0.16-2.2-0.16-3.3q-0.03-33.78 0-67.6-0.01-1.65 0.11-3.27c0.09-1.01 0.68-1.68 1.73-1.8 0.72-0.09 1.46-0.09 2.2-0.06 8.77 0.11 7.61-1.19 7.65 7.47z"/>
			<path id="&lt;Path&gt;" class="s7" d="m69.65 483.29c0 4.96 0.05 9.9 0 14.86-0.04 3.68-1.9 6.28-5.25 7.67-4.82 2-10.36-1.17-11.3-6.35-0.18-1.05-0.16-2.18-0.16-3.28v-25.82c0-1.1-0.02-2.2 0.13-3.27 0.63-4.15 4.33-7.32 8.42-7.25 4.08 0.04 7.63 3.3 8.1 7.52 0.15 1.45 0.06 2.93 0.06 4.39 0.03 3.86 0 7.7 0 11.53z"/>
			<path id="&lt;Path&gt;" class="s8" d="m129.24 505.1v25.26c0 0.9-0.04 1.82-0.04 2.74-0.05 4.67-4.38 7.94-8.26 7.92-4.11-0.02-7.67-3.05-8.32-7.29-0.16-1.08-0.12-2.2-0.12-3.3q-0.03-6.3 0-12.63 0.01-6.87-0.02-13.71c0-1.68 0.18-3.27 0.92-4.8 1.73-3.48 5.18-5.23 9.11-4.58 3.52 0.59 6.15 3.37 6.6 7.09 0.13 1.1 0.13 2.2 0.13 3.3z"/>
			<path id="&lt;Path&gt;" class="s9" d="m69.59 528.03c0 1.82 0.15 3.68-0.05 5.47-0.42 3.97-3.77 7.09-7.69 7.36-4 0.27-8.26-2.78-8.66-6.89-0.43-3.97-0.41-8.05-0.05-12.04 0.38-4.15 4.44-7.25 8.5-7.09 4.13 0.15 7.56 3.41 7.95 7.69 0.15 1.82 0.02 3.66 0.02 5.5z"/>
			<path id="&lt;Path&gt;" class="s10" d="m129.15 473.18q0.02 0 0.05 0v4.93c0 4.15-3.68 7.61-7.7 7.9-4.11 0.29-8.14-2.56-8.75-6.73-0.61-4.17-0.67-8.44 0.05-12.59 0.74-4.17 4.86-6.95 8.92-6.55 4 0.41 7.03 3.41 7.41 7.56 0.18 1.8 0.02 3.66 0.02 5.48z"/>
			<path id="&lt;Path&gt;" class="s11" d="m99.38 451.15c-0.36 4.53-3.39 7.56-7.67 7.78-4.31 0.25-8.12-2.45-8.73-6.66-0.61-4.15-0.65-8.44 0.04-12.57 0.7-4.15 4.74-6.84 8.91-6.48 3.93 0.36 7.07 3.45 7.43 7.52 0.15 1.81 0.02 3.65 0.02 5.47q-0.01 0 0.02 0c0 1.66 0.09 3.3-0.02 4.94z"/>
			<path id="&lt;Path&gt;" class="s12" d="m40.44 507.03c-0.67 4.17-4.69 6.87-8.88 6.53-3.93-0.34-7.07-3.41-7.45-7.49-0.18-1.82-0.02-3.66-0.02-5.48q-0.02 0-0.05 0c0-1.66-0.11-3.3 0.03-4.93 0.33-4.54 3.38-7.59 7.65-7.86 4.26-0.27 8.12 2.43 8.77 6.67 0.6 4.15 0.65 8.41-0.05 12.56z"/>
			<path id="&lt;Path&gt;" class="s13" d="m158 507.21c-0.92 4.28-4.73 6.75-8.97 6.3-3.88-0.4-6.89-3.52-7.25-7.67-0.13-1.82-0.02-3.66-0.02-5.47 0-1.66-0.11-3.3 0.02-4.94 0.36-4.15 2.94-6.93 6.73-7.47 4.31-0.58 7.63 1.28 9.22 5.16 0.14 0.34 0.36 0.67 0.38 1.03 0.5 4.35 0.81 8.75-0.11 13.06z"/>
			<path id="&lt;Path&gt;" class="s11" d="m99.38 559.82c-0.36 4.35-3.61 7.47-7.83 7.67-4.13 0.18-8.19-2.74-8.62-6.86-0.4-3.97-0.4-8.06 0.03-12.03 0.47-4.26 4.28-7 8.59-6.82 4.31 0.16 7.45 3.14 7.81 7.63 0.15 1.82 0.02 3.63 0.02 5.47q-0.01 0 0.02 0c0 1.64 0.11 3.3-0.02 4.94z"/>
		</g>
	</g>
</svg>