<svg version="1.2" xmlns="http://www.w3.org/2000/svg" viewBox="25 207.843380419139 450 84.31323916172198" width="450" height="86">
	<defs>
		<linearGradient id="g1" x2="1" gradientUnits="userSpaceOnUse" gradientTransform="matrix(0,84.313,-84.312,0,109.312,207.843)">
			<stop offset="0" stop-color="#f452ff"/>
			<stop offset="1" stop-color="#832bc1"/>
		</linearGradient>
	</defs>
	<style>
		.s0 { fill: #3c4043 } 
		.s1 { fill: url(#g1) } 
		.s2 { fill: #ffffff } 
	</style>
	<g id="Layer 1">
		<g id="&lt;Group&gt;">
			<g id="&lt;Group&gt;">
				<path id="&lt;Compound Path&gt;" class="s0" d="m146.67 253.93h-13.75l-3.3 9.75h-5.82l13.02-36.06h6.04l13.02 36.06h-5.92zm-12.32-4.5h10.89l-5.37-15.82h-0.15zm50.31 1.1c0 8.17-4.37 13.42-10.97 13.42-3.75 0-6.72-1.68-8.27-4.6h-0.12v13.02h-5.4v-34.99h5.22v4.37h0.1c1.5-2.82 4.7-4.64 8.37-4.64 6.68 0 11.07 5.27 11.07 13.42zm-5.54 0c0-5.32-2.75-8.82-6.95-8.82-4.12 0-6.9 3.57-6.9 8.82 0 5.3 2.78 8.85 6.9 8.85 4.2 0 6.95-3.48 6.95-8.85zm34.69 0c0 8.17-4.38 13.42-10.97 13.42-3.75 0-6.73-1.68-8.28-4.6h-0.12v13.02h-5.4v-34.99h5.22v4.37h0.1c1.5-2.82 4.7-4.64 8.37-4.64 6.68 0 11.08 5.27 11.08 13.42zm-5.55 0c0-5.32-2.75-8.82-6.95-8.82-4.12 0-6.9 3.57-6.9 8.82 0 5.3 2.78 8.85 6.9 8.85 4.2 0 6.95-3.48 6.95-8.85zm10.12-22.92h5.4v36.06h-5.4zm34.6 28.34c-0.72 4.78-5.37 8.05-11.32 8.05-7.65 0-12.4-5.12-12.4-13.34 0-8.25 4.78-13.6 12.17-13.6 7.28 0 11.85 5 11.85 12.97v1.85h-18.57v0.32c0 4.5 2.82 7.45 7.07 7.45 2.99 0 5.34-1.42 6.07-3.7h5.13zm-18.24-7.84h13.14c-0.12-4.03-2.7-6.67-6.44-6.67-3.73 0-6.43 2.69-6.7 6.67zm49.31-20.5c7 0 11.87 4.83 11.87 11.85 0 7.05-4.97 11.89-12.04 11.89h-7.75v12.32h-5.6v-36.06h13.52zm-7.92 19.05h6.42c4.87 0 7.65-2.63 7.65-7.18 0-4.54-2.78-7.14-7.62-7.14h-6.45v14.32zm22.33 3.87c0-8.27 4.87-13.47 12.47-13.47 7.62 0 12.46 5.19 12.46 13.47 0 8.3-4.82 13.47-12.46 13.47-7.65 0-12.47-5.18-12.47-13.47zm19.44 0c0-5.67-2.6-9.02-6.97-9.02-4.38 0-6.98 3.37-6.98 9.02 0 5.7 2.6 9.02 6.98 9.02 4.37 0 6.97-3.32 6.97-9.02zm9.23 0c0-8.12 4.48-13.42 11-13.42 3.77 0 6.75 1.75 8.24 4.65h0.1v-14.15h5.42v36.06h-5.25v-4.47h-0.09c-1.55 3-4.55 4.75-8.38 4.75-6.56 0-11.04-5.3-11.04-13.42zm5.52 0c0 5.4 2.75 8.85 6.95 8.85 4.15 0 6.92-3.5 6.92-8.85 0-5.3-2.77-8.82-6.92-8.82-4.2-0.01-6.95 3.47-6.95 8.82zm42.67-4.1c-0.47-2.77-2.65-4.85-6.2-4.85-4.15 0-6.89 3.48-6.89 8.95 0 5.6 2.77 8.97 6.94 8.97 3.35 0 5.55-1.68 6.15-4.72h5.2c-0.6 5.52-5.02 9.22-11.4 9.22-7.49 0-12.39-5.13-12.39-13.47 0-8.17 4.9-13.48 12.34-13.48 6.75 0 10.95 4.25 11.4 9.38h-5.15zm8.62 9.72c0-4.6 3.52-7.29 10.07-7.69l6.99-0.4v-2c0-2.98-1.97-4.57-5.39-4.57-2.83 0-4.9 1.45-5.33 3.69h-5.05c0.15-4.69 4.55-8.12 10.53-8.12 6.44 0 10.61 3.38 10.61 8.6v18.02h-5.17v-4.32h-0.12c-1.48 2.82-4.75 4.69-8.3 4.69-5.22 0-8.84-3.23-8.84-7.9zm17.06-2.32v-2.03l-6.3 0.4c-3.49 0.2-5.34 1.55-5.34 3.83 0 2.2 1.92 3.75 4.92 3.75 3.82-0.01 6.72-2.55 6.72-5.95zm21.16-16.75c5.82 0 9.99 3.22 10.12 7.87h-5.07c-0.23-2.32-2.2-3.75-5.2-3.75-2.92 0-4.87 1.35-4.87 3.4 0 1.58 1.3 2.63 4.02 3.3l4.42 1.03c5.3 1.27 7.3 3.22 7.3 7.07 0 4.75-4.5 7.99-10.92 7.99-6.2 0-10.37-3.17-10.77-7.97h5.34c0.38 2.52 2.41 3.87 5.68 3.87 3.22 0 5.25-1.32 5.25-3.42 0-1.63-1-2.5-3.75-3.2l-4.7-1.15c-4.75-1.15-7.15-3.57-7.15-7.22 0-4.64 4.17-7.82 10.3-7.82zm22.66-5.92v6.22h5v4.28h-5v14.49c0 2.25 1 3.3 3.2 3.3 0.55 0 1.42-0.08 1.77-0.12v4.24c-0.6 0.15-1.8 0.25-3 0.25-5.32 0-7.39-2-7.39-7.1v-15.07h-3.83v-4.27h3.83v-6.22h5.42zm19.48 5.92c5.82 0 9.99 3.22 10.12 7.87h-5.08c-0.22-2.32-2.19-3.75-5.19-3.75-2.93 0-4.88 1.35-4.88 3.4 0 1.58 1.3 2.63 4.02 3.3l4.43 1.02c5.29 1.28 7.29 3.23 7.29 7.08 0 4.74-4.5 7.99-10.92 7.99-6.2 0-10.37-3.17-10.77-7.97h5.35c0.38 2.52 2.4 3.87 5.67 3.87 3.23 0 5.26-1.32 5.26-3.42 0-1.63-1-2.5-3.75-3.2l-4.7-1.15q-7.14-1.74-7.15-7.22c0-4.64 4.17-7.82 10.3-7.82z"/>
			</g>
			<path id="&lt;Path&gt;" class="s1" d="m107.65 280.92c-2.07 4.91-6.23 8.64-11.33 10.16-2.71 0.8-6.04 1.08-10.19 1.08h-37.94c-4.15 0-7.48-0.28-10.19-1.08-5.11-1.52-9.26-5.25-11.33-10.16-1.65-4.19-1.67-8.95-1.67-11.95v-37.94c0-3 0.02-7.76 1.67-11.95 2.07-4.91 6.22-8.64 11.33-10.16 2.7-0.81 6.04-1.08 10.19-1.08h37.94c4.15 0 7.48 0.27 10.19 1.08 5.1 1.52 9.26 5.25 11.32 10.16 1.65 4.19 1.67 8.95 1.67 11.95v37.94c0.01 3-0.01 7.76-1.66 11.95z"/>
			<path id="&lt;Compound Path&gt;" class="s2" d="m73.27 256.3c-1.26-1.33-3.48-2.19-6.11-2.19-2.62 0-4.84 0.86-6.11 2.19-0.65 0.66-1.04 1.52-1.12 2.43-0.21 1.97-0.09 3.67 0.14 6.38 0.22 2.58 0.63 6.03 1.18 9.54 0.39 2.5 0.7 3.85 0.99 4.81 0.46 1.57 2.2 2.94 4.92 2.94 2.72 0 4.45-1.37 4.92-2.94 0.29-0.96 0.6-2.31 0.99-4.81 0.55-3.51 0.97-6.95 1.18-9.54 0.23-2.71 0.35-4.41 0.14-6.38-0.07-0.91-0.47-1.77-1.12-2.43zm-6.19-39.12c-16.13 0.05-29.36 13.14-29.56 29.28-0.16 13.07 8.18 24.25 19.84 28.35 0.21 0.07 0.43-0.04 0.51-0.25q0.03-0.09 0.01-0.18-0.23-1.53-0.43-3.04c-0.04-0.36-0.27-0.66-0.59-0.8-9.52-4.16-15.63-13.58-15.54-23.96 0.13-14.04 11.6-25.49 25.64-25.6 14.35-0.12 26.07 11.53 26.07 25.85-0.01 10.29-6.11 19.6-15.54 23.71-0.33 0.14-0.56 0.45-0.6 0.8q-0.2 1.52-0.43 3.04c-0.04 0.21 0.11 0.41 0.33 0.45q0.1 0.01 0.19-0.02c11.54-4.06 19.84-15.07 19.84-27.98 0-16.37-13.35-29.69-29.74-29.65zm-0.53 13.61c8.88-0.34 16.35 6.58 16.69 15.45q0.01 0.3 0.01 0.6c0 4.44-1.84 8.68-5.08 11.71-0.26 0.25-0.4 0.6-0.39 0.97 0.06 1.1 0.04 2.17-0.03 3.38-0.01 0.22 0.15 0.4 0.37 0.41q0.13 0.01 0.24-0.06c5.43-3.7 8.68-9.84 8.68-16.41-0.01-10.98-8.92-19.87-19.9-19.86q-0.37 0-0.75 0.01c-10.5 0.41-18.94 9.07-19.07 19.59-0.08 6.66 3.18 12.92 8.68 16.67 0.18 0.12 0.42 0.08 0.54-0.1q0.08-0.11 0.07-0.24-0.12-1.7-0.04-3.39c0.02-0.37-0.12-0.72-0.38-0.97-3.36-3.13-5.2-7.55-5.08-12.14 0.26-8.45 6.99-15.26 15.44-15.62zm-6.28 13.63c0 3.81 3.09 6.9 6.9 6.9 3.81 0 6.9-3.09 6.9-6.9 0-3.81-3.09-6.9-6.9-6.9-3.81 0-6.9 3.09-6.9 6.9z"/>
		</g>
	</g>
</svg>