<svg version="1.2" xmlns="http://www.w3.org/2000/svg" viewBox="54.51407831554809 326.05125363329796 2399.9592049519747 549.3302772934071" width="2401" height="550">
	<style>
		.s0 { fill: #231f20 } 
		.s1 { fill: #e11b22 } 
		.s2 { fill: #fefefe } 
	</style>
	<g id="Layer 1">
		<path id="&lt;Compound Path&gt;" fill-rule="evenodd" class="s0" d="m1499.12 834.47h62.24v-346h-62.24v263.73c-44.79 52.17-56.07 13.18-56.07-6.41v-257.32h-62.25v269.61c0 44.01 11 72.07 38.99 76.52 18.65 2.96 45.57 0.02 79.33-41.23zm-503.08 0h70.17v-185.68l83.46-276.74h-70.17l-48.44 173.89-48.43-173.89h-70.17l83.58 277.15zm243.87-349.89c51.21 0 93.11 41.89 93.11 93.1 0 59.64 0 109.75 0 163.68 0 51.21-41.9 93.11-93.11 93.11-51.21 0-93.11-41.9-93.11-93.11v-163.68c0-51.21 41.9-93.1 93.11-93.1zm-29.73 265.18c0 16.36 13.38 29.74 29.73 29.74 16.36 0 29.74-13.38 29.74-29.74 0-59.76 0-119.34 0-179.88 0-16.35-13.38-29.73-29.74-29.73-16.35 0-29.73 13.38-29.73 29.73 0 62.45 0 114.96 0 179.88z"/>
		<path id="&lt;Compound Path&gt;" fill-rule="evenodd" class="s0" d="m2035.76 834.47h62.24v-36.78c11.83 14.59 31.31 41.11 68.87 36.78 62.84-7.25 51.38-90.56 51.38-90.56 0 0 0-118.95 0-177.44 0-58.5-20.67-81.9-57.24-81.9-29.88 0-54.89 26.39-63.01 36.02v-148.54h-62.24zm62.24-71.54v-206.4c7.92-9.26 18.56-17.24 31.33-16.39 29.25 1.96 26.32 39 26.32 39 0 0-0.48 136.98-0.48 163.3 0 26.33-10.24 35.59-27.3 36.08-14.58 0.41-26.66-11.96-29.87-15.59z"/>
		<path id="&lt;Path&gt;" fill-rule="evenodd" class="s0" d="m1918.09 834.47h62.24v-346h-62.24v263.73c-44.79 52.17-56.07 13.18-56.07-6.41v-257.32h-62.25v269.61c0 44.01 11 72.07 38.99 76.52 18.65 2.96 45.57 0.02 79.33-41.23z"/>
		<path id="&lt;Path&gt;" fill-rule="evenodd" class="s0" d="m1647.19 834.47h70.17v-396.42h73.53v-66h-217.23v66h73.53z"/>
		<path id="&lt;Compound Path&gt;" fill-rule="evenodd" class="s0" d="m2361.37 484.57c51.21 0 93.1 41.9 93.1 93.11v93.59h-122.84v78.49c0 16.35 13.38 29.73 29.74 29.73 16.35 0 29.73-13.38 29.73-29.73v-38.51h63.37v30.11c0 51.21-41.89 93.11-93.1 93.11-51.22 0-93.11-41.9-93.11-93.11v-163.68c0-51.21 41.89-93.11 93.11-93.11zm29.73 134.06v-48.75c0-16.35-13.38-29.74-29.73-29.74-16.36 0-29.74 13.39-29.74 29.74v48.75z"/>
		<path id="&lt;Path&gt;" fill-rule="evenodd" class="s1" d="m494.56 326.08c68.86 0.11 159.96 0.99 227.22 7.24 53.75 5 67.2 13.04 81.34 25.87 36.64 33.22 44.82 123.14 46.03 212.61 0.26 19.26 0.26 38.57 0 57.83-1.21 89.47-9.39 179.39-46.03 212.61-14.14 12.83-27.59 20.87-81.34 25.87-67.26 6.25-158.36 7.13-227.22 7.24q-42.64 0.07-85.27 0c-68.86-0.11-159.96-0.99-227.22-7.24-53.75-5-67.19-13.04-81.34-25.87-36.95-33.5-44.95-124.69-46.06-214.92-0.2-16.95-0.21-33.94-0.02-50.9 0.99-90.97 8.81-183.44 46.08-217.23 14.15-12.82 27.59-20.87 81.34-25.87 67.26-6.25 158.36-7.12 227.22-7.23q42.63-0.07 85.27-0.01z"/>
		<path id="&lt;Path&gt;" fill-rule="evenodd" class="s2" d="m374.15 486.47v235.78l200.53-121.53z"/>
	</g>
</svg>