<svg version="1.2" xmlns="http://www.w3.org/2000/svg" viewBox="58.00037262718336 142.00065626643345 409.999824479978 79.38934312321499" width="411" height="80">
	<style>
		.s0 { fill: #1d1d1b } 
	</style>
	<g id="katman 1">
		<path id="&lt;Compound Path&gt;" fill-rule="evenodd" class="s0" d="m183.88 162.29v-4.96c-0.02-0.67 0.52-1.24 1.19-1.26h21.82c0.66-0.02 1.21 0.5 1.24 1.16q0 0 0 0 0 0.04 0 0.08v4.25c-0.26 1.16-0.82 2.24-1.62 3.13l-11.32 16.39c4.29-0.24 8.57 0.7 12.39 2.72 0.7 0.4 1.14 1.13 1.15 1.93v5.29c0.02 0.65-0.47 1.2-1.11 1.22q-0.25 0.01-0.49-0.1c-7.18-3.79-15.78-3.79-22.97 0-0.75 0.41-1.54-0.42-1.54-1.15v-5.02c-0.07-1.19 0.21-2.37 0.81-3.4l13.08-19.08h-11.33c-0.67 0.03-1.25-0.5-1.28-1.2v-0.02l-0.02 0.02zm-88.49 29.96c-0.64-0.03-1.15-0.52-1.21-1.15v-35.04c0.01-0.71 0.59-1.28 1.3-1.27q0.01 0 0.01 0h6.4c0.66 0.03 1.2 0.54 1.26 1.2v4.57h0.11c1.18-3.98 4.9-6.65 9.03-6.49 4.29 0 7 2.05 8.92 6.49 2.02-5.22 7.91-7.82 13.15-5.8 1.68 0.65 3.16 1.73 4.28 3.14 2.17 2.95 1.72 7.22 1.72 10.97v22.13c-0.02 0.71-0.61 1.27-1.33 1.25q0 0 0 0h-6.85c-0.68-0.03-1.22-0.58-1.24-1.25v-18.57q0.16-3.29-0.19-6.56c-0.28-1.95-2.08-3.31-4.03-3.03h-0.01c-1.81 0.06-3.42 1.18-4.09 2.87-0.58 2.19-0.79 4.46-0.65 6.72v18.57c-0.01 0.7-0.59 1.26-1.29 1.25q0 0 0 0h-6.88c-0.67-0.03-1.21-0.58-1.23-1.25v-18.57c0-3.91 0.64-9.67-4.21-9.67-4.86 0-4.74 5.61-4.74 9.67v18.57c-0.01 0.7-0.59 1.26-1.29 1.25q0 0 0 0-0.03 0-0.06 0h-6.88zm130.81-38.18c10.2 0 15.7 8.52 15.7 19.37 0 10.5-6.08 18.81-15.7 18.81-10 0-15.46-8.54-15.46-19.16 0-10.61 5.46-19.02 15.4-19.02h0.06zm-5.41 17.97c0 4.2 0 13.18 5.4 13.18 5.4 0 5.64-7.25 5.64-11.66 0.11-3.07-0.23-6.14-1.04-9.11-0.44-2.06-2.38-3.48-4.54-3.34-5.12 0-5.46 6.73-5.46 10.93zm34.62 20.13h-6.34c-0.63-0.02-1.13-0.57-1.14-1.24v-34.99c0.06-0.66 0.59-1.16 1.21-1.15h5.9c0.54 0.04 1.01 0.44 1.15 1v5.32h0.11c1.81-4.76 4.28-7.03 8.68-7.03 2.98-0.16 5.81 1.41 7.42 4.1 1.65 2.78 1.65 7.48 1.65 10.86v22.12c-0.08 0.64-0.61 1.12-1.21 1.09h-6.38c-0.57-0.02-1.05-0.48-1.14-1.09v-18.93c0-3.89 0.42-9.41-3.98-9.41-1.61 0.09-3.03 1.19-3.63 2.8-0.79 2.11-1.14 4.36-1.01 6.61v18.77c-0.03 0.72-0.6 1.28-1.27 1.25h-0.02v-0.08zm-82.35-0.49c-0.44 0.38-1.08 0.44-1.59 0.15-1.54-1.24-2.85-2.75-3.85-4.45-2.72 3.28-6.84 5.08-11.1 4.85-5.76 0-10.09-3.47-10.09-10.41-0.12-4.76 2.74-9.11 7.19-10.9 3.65-1.59 8.76-1.91 12.66-2.31v-0.88c0.21-1.66-0.07-3.34-0.83-4.83-0.91-1.19-2.35-1.84-3.84-1.74-2.56-0.21-4.89 1.51-5.42 4.01-0.07 0.62-0.55 1.12-1.17 1.22l-6.51-0.69c-0.65-0.13-1.07-0.76-0.94-1.41 1.5-7.85 8.64-10.22 15.06-10.22 3.65-0.12 7.24 1.06 10.1 3.33 3.27 3.03 2.96 7.08 2.96 11.46v10.4c0.04 2.31 0.94 4.52 2.54 6.19 0.48 0.49 0.48 1.27 0 1.76-1.39 1.15-3.84 3.25-5.17 4.45v0.02zm-6.61-16.13v-1.39c-4.86 0-9.97 0.99-9.97 6.43 0 2.76 1.49 4.63 4.08 4.63 2-0.07 3.79-1.19 4.67-2.91 1.06-2.08 1.48-4.43 1.22-6.76zm-81.9 16.13c-0.45 0.38-1.08 0.44-1.59 0.15-1.53-1.24-2.83-2.75-3.83-4.45-2.72 3.28-6.82 5.08-11.06 4.85-5.66 0-10.07-3.47-10.07-10.4-0.15-4.79 2.72-9.15 7.17-10.91 3.64-1.58 8.72-1.91 12.63-2.31v-0.88c0.21-1.66-0.08-3.34-0.82-4.83-0.92-1.17-2.35-1.82-3.83-1.74-2.55-0.2-4.85 1.51-5.39 4.01-0.07 0.63-0.55 1.13-1.17 1.23l-6.52-0.69c-0.63-0.15-1.03-0.78-0.9-1.42 1.5-7.85 8.63-10.21 15.03-10.21 3.65-0.13 7.23 1.04 10.1 3.32 3.28 3.04 2.95 7.08 2.95 11.46v10.41c0.03 2.3 0.94 4.51 2.53 6.18 0.49 0.47 0.5 1.25 0.03 1.73l-0.03 0.03c-1.36 1.15-3.83 3.25-5.14 4.45l-0.09 0.02zm-6.52-17.52c-4.86 0-9.98 0.99-9.98 6.44 0 2.75 1.51 4.62 4.07 4.62 1.99-0.08 3.77-1.2 4.64-2.91 1.08-2.08 1.52-4.43 1.27-6.76v-1.39zm67.84 47.23c-21.12 0.12-41.51-8.1-57.21-23.07-1.19-1.12-0.13-2.67 1.29-1.79 17.48 10.55 37.25 16.08 57.37 16.05 14.99-0.08 29.82-3.29 43.65-9.44 2.06-0.96 3.85 1.49 1.75 3.12-12.67 9.87-31.02 15.13-46.85 15.13zm51.88-21.21c-1.65-2.14-10.91-1.02-15.07-0.5-1.27 0.14-1.47-0.98-0.33-1.78 7.39-5.28 19.5-3.76 20.91-2 1.41 1.76-0.37 14.12-7.3 19.99-1.08 0.92-2.08 0.42-1.61-0.76 1.55-3.94 5.04-12.79 3.4-14.95zm213.28-13.75c1.29-0.89 2.03-2.36 1.96-3.89 0.04-1.04-0.37-2.05-1.14-2.76-1.24-0.97-2.66-1.7-4.18-2.14l-6.3-2.26c-5.45-1.88-8.21-5.26-8.21-9.94-0.09-2.94 1.3-5.74 3.74-7.52 2.82-1.99 6.27-2.99 9.77-2.83 3.21 0 6.39 0.55 9.39 1.63q0.73 0.2 1.27 0.74c0.26 0.41 0.39 0.9 0.35 1.39v1.88q0.01 1.27-0.96 1.27-0.87-0.06-1.7-0.35c-2.59-0.75-5.28-1.13-7.97-1.13q-7.11-0.01-7.12 4.6c-0.06 1.1 0.38 2.17 1.19 2.92 1.41 1.02 2.99 1.81 4.65 2.33l5.87 2.12c2.34 0.8 4.45 2.15 6.16 3.94 1.35 1.63 2.04 3.69 1.95 5.79 0.12 3.12-1.34 6.1-3.91 8.01-3.03 2.13-6.74 3.19-10.5 3.01-3.81 0.05-7.6-0.63-11.16-2q-0.69-0.24-1.21-0.77c-0.25-0.4-0.37-0.88-0.34-1.35v-1.99q0.01-1.28 0.88-1.28 0.96 0.1 1.86 0.43c3.29 1 6.7 1.5 10.13 1.49 1.94 0.13 3.87-0.34 5.53-1.36v0.02zm-32.59-29.89c-0.09-0.71 0.4-1.36 1.1-1.46q0.18-0.02 0.35 0.01h4.25c0.7-0.1 1.34 0.39 1.44 1.09q0 0 0 0 0.02 0.18 0 0.36v34.11c0.1 0.71-0.38 1.37-1.08 1.48q-0.18 0.02-0.37 0h-3.1q-0.59 0.02-1.1-0.29c-0.32-0.29-0.52-0.68-0.55-1.11l-0.5-2.56c-3.89 3.17-8.74 4.95-13.76 5.06-2.93 0.21-5.82-0.86-7.91-2.93-1.94-2.3-2.93-5.26-2.75-8.27v-25.49c-0.09-0.71 0.4-1.36 1.11-1.46q0.17-0.02 0.34 0h4.25c0.7-0.09 1.34 0.39 1.44 1.09q0.03 0.19 0 0.37v23.24c-0.17 2.06 0.36 4.1 1.51 5.82 1.21 1.37 3 2.08 4.83 1.93 3.75-0.1 7.38-1.32 10.43-3.5l0.07-27.49zm-38.72 35.7c-0.71 0.1-1.36-0.39-1.46-1.1q0 0 0 0-0.03-0.19 0-0.38v-23.67c0.14-1.91-0.34-3.82-1.38-5.43-1.1-1.24-2.71-1.89-4.36-1.74-3.79 0.08-7.49 1.22-10.67 3.29q0.05 0.54 0 1.09v26.46c0.11 0.71-0.38 1.37-1.09 1.47q-0.18 0.03-0.37 0.01h-4.28c-0.7 0.1-1.35-0.39-1.45-1.1q0 0 0 0-0.03-0.19 0-0.38v-23.67c0.14-1.91-0.34-3.81-1.37-5.43-1.09-1.23-2.71-1.88-4.35-1.74-3.78 0.02-7.46 1.14-10.61 3.21v27.63c0.1 0.71-0.39 1.37-1.09 1.47q-0.18 0.03-0.35 0.01h-4.3c-0.71 0.09-1.35-0.41-1.44-1.12q-0.03-0.18 0-0.36v-34.12c-0.11-0.69 0.37-1.34 1.07-1.45q0.18-0.03 0.37 0h3.22q0.6-0.03 1.11 0.29c0.32 0.28 0.52 0.66 0.56 1.08l0.42 2.35c3.93-2.97 8.67-4.65 13.59-4.83q6.75 0 9.15 5.2c4.11-3.23 9.15-5.05 14.37-5.2 2.84-0.18 5.63 0.86 7.68 2.85 1.91 2.26 2.88 5.17 2.69 8.12v25.71c0.1 0.71-0.39 1.37-1.09 1.47q-0.19 0.03-0.37 0h-4.2zm111.21-28.13q-2.66 3.05-2.67 9.78v0.93c0 4.38 0.92 7.65 2.71 9.56 2.25 2.22 5.38 3.35 8.54 3.07 2.19-0.03 4.37-0.37 6.46-1.01q0.54-0.16 1.09-0.21 0.94 0 0.93 1.43v1.91q0.05 0.73-0.29 1.38-0.46 0.56-1.16 0.78c-2.59 1.07-5.38 1.59-8.19 1.53-5.71 0-9.99-1.62-13-4.87q-4.49-4.87-4.49-14.1c0-6.15 1.55-10.83 4.65-14.18 3.45-3.47 8.23-5.29 13.12-5 2.6 0 5.18 0.47 7.61 1.37q0.66 0.2 1.12 0.71c0.25 0.44 0.36 0.95 0.33 1.45v1.91q-0.01 1.44-0.94 1.44-0.59-0.03-1.16-0.21c-1.94-0.57-3.95-0.86-5.97-0.86-3.99 0.13-6.89 1.14-8.67 3.19h-0.02zm-18.54-7.01c0.69-0.1 1.33 0.38 1.42 1.07q0.03 0.17 0.01 0.34v33.3c0.1 0.69-0.38 1.33-1.07 1.43q-0.18 0.03-0.36 0h-4.17c-0.69 0.09-1.32-0.39-1.41-1.08q0 0 0-0.01-0.03-0.17 0-0.34v-33.28c-0.1-0.68 0.37-1.31 1.05-1.41q0.18-0.03 0.36-0.01l4.17-0.02zm1.25-13.85c1.6 1.88 1.6 4.7 0 6.58-1.9 1.64-4.73 1.64-6.63 0-1.62-1.87-1.62-4.71 0-6.58 1.9-1.64 4.73-1.64 6.63 0z"/>
	</g>
</svg>