<svg xmlns="http://www.w3.org/2000/svg" xmlns:xlink="http://www.w3.org/1999/xlink" width="1920" zoomAndPan="magnify" viewBox="0 0 1440 809.999993" height="1080" preserveAspectRatio="xMidYMid meet" version="1.0"><defs><filter x="0%" y="0%" width="100%" height="100%" id="c255979568"><feColorMatrix values="0 0 0 0 1 0 0 0 0 1 0 0 0 0 1 0 0 0 1 0" color-interpolation-filters="sRGB"/></filter><mask id="f610b6f661"><g filter="url(#c255979568)"><rect x="-144" width="1728" fill="#000000" y="-80.999999" height="971.999992" fill-opacity="0.03"/></g></mask><clipPath id="9654a8ee62"><path d="M 0 15 L 1439.957031 15 L 1439.957031 599 L 0 599 Z M 0 15 " clip-rule="nonzero"/></clipPath><clipPath id="f6259c9f4b"><rect x="0" width="1440" y="0" height="614"/></clipPath><mask id="2cb3aa3ff3"><g filter="url(#c255979568)"><rect x="-144" width="1728" fill="#000000" y="-80.999999" height="971.999992" fill-opacity="0.03"/></g></mask><clipPath id="c166aabdea"><path d="M 0 15 L 1319.917969 15 L 1319.917969 599 L 0 599 Z M 0 15 " clip-rule="nonzero"/></clipPath><clipPath id="15e315af22"><rect x="0" width="1322" y="0" height="614"/></clipPath><mask id="c0ff8c4471"><g filter="url(#c255979568)"><rect x="-144" width="1728" fill="#000000" y="-80.999999" height="971.999992" fill-opacity="0.03"/></g></mask><clipPath id="fcdd0100a4"><path d="M 0 15 L 1138.300781 15 L 1138.300781 599 L 0 599 Z M 0 15 " clip-rule="nonzero"/></clipPath><clipPath id="d4a50320bd"><rect x="0" width="1141" y="0" height="614"/></clipPath><mask id="2d4e21cb54"><g filter="url(#c255979568)"><rect x="-144" width="1728" fill="#000000" y="-80.999999" height="971.999992" fill-opacity="0.03"/></g></mask><clipPath id="65705ac323"><path d="M 0 15 L 973.644531 15 L 973.644531 599 L 0 599 Z M 0 15 " clip-rule="nonzero"/></clipPath><clipPath id="25a7275eec"><rect x="0" width="976" y="0" height="614"/></clipPath></defs><g mask="url(#f610b6f661)"><g transform="matrix(1, 0, 0, 1, 0, 97)"><g clip-path="url(#f6259c9f4b)"><g clip-path="url(#9654a8ee62)"><path fill="#181e3a" d="M 1171.722656 15.371094 L -172.578125 15.371094 L -172.578125 598.710938 L 1171.722656 598.710938 L 1440.046875 307.039062 Z M 1171.722656 15.371094 " fill-opacity="1" fill-rule="nonzero"/></g></g></g></g><g mask="url(#2cb3aa3ff3)"><g transform="matrix(1, 0, 0, 1, 0, 97)"><g clip-path="url(#15e315af22)"><g clip-path="url(#c166aabdea)"><path fill="#181e3a" d="M 1051.683594 15.371094 L -292.617188 15.371094 L -292.617188 598.710938 L 1051.683594 598.710938 L 1320.007812 307.039062 Z M 1051.683594 15.371094 " fill-opacity="1" fill-rule="nonzero"/></g></g></g></g><g mask="url(#c0ff8c4471)"><g transform="matrix(1, 0, 0, 1, 0, 97)"><g clip-path="url(#d4a50320bd)"><g clip-path="url(#fcdd0100a4)"><path fill="#181e3a" d="M 870.070312 15.371094 L -474.230469 15.371094 L -474.230469 598.710938 L 870.070312 598.710938 L 1138.394531 307.039062 Z M 870.070312 15.371094 " fill-opacity="1" fill-rule="nonzero"/></g></g></g></g><g mask="url(#2d4e21cb54)"><g transform="matrix(1, 0, 0, 1, 0, 97)"><g clip-path="url(#25a7275eec)"><g clip-path="url(#65705ac323)"><path fill="#181e3a" d="M 705.414062 15.371094 L -638.886719 15.371094 L -638.886719 598.710938 L 705.414062 598.710938 L 973.738281 307.039062 Z M 705.414062 15.371094 " fill-opacity="1" fill-rule="nonzero"/></g></g></g></g></svg>